<?xml version="1.0" encoding="utf-8"?>
<!-- Generator: Adobe Illustrator 27.5.0, SVG Export Plug-In . SVG Version: 6.00 Build 0)  -->
<svg version="1.1" xmlns="http://www.w3.org/2000/svg" xmlns:xlink="http://www.w3.org/1999/xlink" x="0px" y="0px"
	 viewBox="0 0 500 500" style="enable-background:new 0 0 500 500;" xml:space="preserve">
<g id="BACKGROUND">
	<path style="opacity:0.3;fill:#FFAFAF;" d="M235.36,440.055c0,0-162,32-205-77c-51.175-129.722,30.322-188.928,106.33-194.693
		c76.009-5.765,107.919-49.755,121.669-76.307c29-56,174.104-125.454,225.328,64.778C534.911,347.064,276.36,435.055,235.36,440.055
		z"/>
</g>
<g id="OBJECTS">
	<g>
		<g>
			<path style="fill:#FFFFFF;" d="M369.757,444.729c0.921,12.151-8.183,22.747-20.335,23.668l-169.124,12.812
				c-12.151,0.92-22.747-8.184-23.668-20.334L126.527,63.499c-0.921-12.151,8.184-22.747,20.335-23.668L315.986,27.02
				c12.151-0.92,22.747,8.184,23.668,20.335L369.757,444.729z"/>
			<g>
				<defs>
					<path id="SVGID_1_" d="M369.757,444.729c0.921,12.151-8.183,22.747-20.335,23.668l-169.124,12.812
						c-12.151,0.92-22.747-8.184-23.668-20.334L126.527,63.499c-0.921-12.151,8.184-22.747,20.335-23.668L315.986,27.02
						c12.151-0.92,22.747,8.184,23.668,20.335L369.757,444.729z"/>
				</defs>
				<clipPath id="SVGID_00000181776944073470783850000011122822649985664942_">
					<use xlink:href="#SVGID_1_"  style="overflow:visible;"/>
				</clipPath>
				<g style="clip-path:url(#SVGID_00000181776944073470783850000011122822649985664942_);">
					<g>
						<path style="opacity:0.2;fill:#260E21;" d="M319.423,373.219c0,0-150.334,13.858-209.046,19.27l4.569,49.569
							c72.149-5.88,234.855-22.678,234.855-22.678l0.814-1.178L319.423,373.219z"/>
						<g>
							<g>
								<path style="fill:#FF455F;" d="M109.937,390.871c2.761-0.255,209.659-19.327,209.659-19.327l31.072,45.051l-236.357,21.73
									L109.937,390.871z"/>
								<path style="fill:#C4374F;" d="M114.543,440.845c2.761-0.255,236.071-22.643,236.071-22.643l-0.007-1.601l-236.296,21.724
									L114.543,440.845z"/>
							</g>
							<path style="fill:#C4374F;" d="M319.552,401.023c0.602,6.536-23.855,14.133-54.627,16.97s-56.206-0.162-56.809-6.698
								c-0.602-6.536,23.855-14.133,54.627-16.97C293.515,391.488,318.949,394.487,319.552,401.023z"/>
						</g>
					</g>
					<g>
						<g>
							<g>
								<g>
									<g>
										<path style="fill:#FFAFAF;" d="M253.789,140.544c0,0,13.982-11.751,31.159-2.454c0,0,14.217-4.658,29.091,2.34
											l-1.692,4.341c0,0,2.225-30.336,1.263-45.312l10.041,4.515c0,0,8.99,38.508,7.303,47.452c0,0-12.962,4.191-28.402,5.129
											c-13.317,0.809-26.997-0.521-36.797,6.66C255.955,170.395,253.789,140.544,253.789,140.544z"/>
										<g>
											<path style="fill:#E59E9E;" d="M323.866,104.791c0,0,0.552-10.652-0.92-11.493c-1.472-0.841-13.066,0.507-13.066,0.507
												l4.642,11.01L323.866,104.791z"/>
											<path style="fill:#E59E9E;" d="M292.234,136.76c-4.453,0.406-7.286,1.331-7.286,1.331
												c-17.178-9.297-31.16,2.454-31.16,2.454s2.166,29.851,11.966,22.67c7.251-5.313,16.627-5.966,26.407-6.275
												C293.499,150.203,293.788,143.315,292.234,136.76z"/>
										</g>
									</g>
									<g>
										<g>
											
												<rect x="302.432" y="91.499" transform="matrix(0.9958 -0.0918 0.0918 0.9958 -7.3263 29.3532)" style="fill:#234563;" width="26.012" height="5.645"/>
											<g>
												<path style="fill:#386182;" d="M325.956,98.688c0.135,1.461,1.428,2.536,2.889,2.402l2.425-0.224
													c1.461-0.135,2.536-1.428,2.402-2.889l-0.975-10.581c-0.135-1.461-1.428-2.536-2.889-2.401l-2.425,0.224
													c-1.461,0.135-2.536,1.428-2.402,2.889L325.956,98.688z"/>
												<path style="fill:#386182;" d="M298.18,101.248c0.135,1.461,1.428,2.536,2.889,2.401l2.425-0.223
													c1.461-0.135,2.536-1.428,2.401-2.889l-0.975-10.581c-0.135-1.461-1.428-2.536-2.889-2.401l-2.425,0.224
													c-1.461,0.135-2.536,1.428-2.401,2.889L298.18,101.248z"/>
											</g>
										</g>
										<g>
											<path style="fill:#FFAFAF;" d="M320.246,106.38c0,0,0.09-8.099-3.495-9.163c-3.585-1.064-7.295-0.444-7.295-0.444
												l-0.606-2.036c0,0,1.554-4.328,0.243-6.439c-1.31-2.111-3.603,4.796-3.386,7.147c0.217,2.352,0.195,5.143,1.655,5.846
												s7.16,3.525,7.16,3.525L320.246,106.38z"/>
											<path style="fill:#FFAFAF;" d="M309.607,88.948c0,0,1.298-2.944,3.669,0.08c0,0,0.921-2.491,3.083-0.598
												c0,0,1.724-1.728,3.623,0.712c0,0,1.167-2.095,2.718,1.109c1.551,3.205,1.924,7.251,0.792,7.46s-2.695-5.401-2.695-5.401
												s1.836,5.166,0.762,5.998c-1.074,0.831-4.63-7.106-4.63-7.106s2.687,6.448,1.282,7.101
												c-1.405,0.653-4.11-6.003-4.11-6.003s1.94,5.157,1.12,5.337c-0.82,0.18-4.308-5.88-4.308-5.88l-1.349,0.124
												L309.607,88.948z"/>
										</g>
									</g>
								</g>
								<g>
									<g>
										<path style="fill:#E59E9E;" d="M151.356,120.693c0,0-2.49-10.372-1.196-11.468c1.294-1.096,12.938-1.89,12.938-1.89
											l-2.551,11.673L151.356,120.693z"/>
										<g>
											<path style="fill:#FFAFAF;" d="M226.789,143.033c0,0-15.895-8.997-31.083,3.284c0,0-14.829-1.981-28.173,7.619
												l2.457,3.958c0,0-7.733-29.417-9.525-44.317l-9.047,6.274c0,0-1.799,39.503,1.494,47.987c0,0,13.509,1.751,28.861-0.15
												c13.24-1.639,25.424-7.849,36.372-2.581C229.093,170.375,226.789,143.033,226.789,143.033z"/>
											<path style="fill:#E59E9E;" d="M201.197,142.758c-1.821,0.915-3.661,2.079-5.491,3.559c0,0-5.481-0.727-12.773,0.854
												c3.041,5.949,5.4,12.726,8.574,18.681c6.364-1.464,12.45-3.057,18.238-2.782
												C206.444,156.442,203.084,149.872,201.197,142.758z"/>
										</g>
									</g>
									<g>
										<g>
											
												<rect x="144.723" y="106.037" transform="matrix(0.9958 -0.0918 0.0918 0.9958 -9.3262 14.9373)" style="fill:#234563;" width="26.012" height="5.645"/>
											<g>
												<path style="fill:#386182;" d="M148.186,115.075c0.135,1.461-0.941,2.755-2.402,2.889l-2.425,0.224
													c-1.461,0.135-2.754-0.94-2.889-2.402l-0.975-10.581c-0.135-1.461,0.941-2.754,2.401-2.889l2.425-0.223
													c1.461-0.135,2.755,0.94,2.889,2.401L148.186,115.075z"/>
												<path style="fill:#386182;" d="M175.962,112.514c0.135,1.461-0.941,2.755-2.402,2.889l-2.425,0.224
													c-1.461,0.135-2.755-0.94-2.889-2.401l-0.975-10.581c-0.135-1.461,0.941-2.754,2.402-2.889l2.425-0.223
													c1.461-0.135,2.755,0.94,2.889,2.401L175.962,112.514z"/>
											</g>
										</g>
										<g>
											<path style="fill:#FFAFAF;" d="M155.206,121.594c0,0-1.569-7.946,1.761-9.648c3.33-1.702,7.09-1.77,7.09-1.77
												l0.224-2.113c0,0-2.319-3.971-1.416-6.286c0.902-2.315,4.419,4.056,4.636,6.408c0.217,2.351,0.748,5.092-0.558,6.05
												c-1.307,0.957-6.395,4.774-6.395,4.774L155.206,121.594z"/>
											<path style="fill:#FFAFAF;" d="M162.479,102.51c0,0-1.814-2.658-3.593,0.75c0,0-1.361-2.281-3.141-0.024
												c0,0-2.011-1.384-3.432,1.362c0,0-1.53-1.847-2.469,1.588c-0.939,3.434-0.566,7.48,0.585,7.479
												c1.151-0.001,1.662-5.803,1.662-5.803s-0.861,5.415,0.347,6.036c1.208,0.621,3.254-7.833,3.254-7.833
												s-1.463,6.83,0.037,7.215c1.5,0.385,2.944-6.653,2.944-6.653s-0.965,5.424-0.125,5.452
												c0.839,0.027,3.161-6.568,3.161-6.568l1.349-0.124L162.479,102.51z"/>
										</g>
									</g>
								</g>
							</g>
							<g>
								<path style="fill:#FFAFAF;" d="M221.717,206.812l1.899-7.303c0,0,1.663-7.435,6.143-10.309
									c4.48-2.873,36.282-10.549,38.877,11.88C270.807,219.855,221.717,206.812,221.717,206.812z"/>
								<g>
									<path style="fill:#FFAFAF;" d="M261.337,137.338c-9.576,5.067-11.778,0.923-12.634-12.559
										c-0.403-6.353-5.219-7.215-9.508-5.621c-4.508-0.783-10.737-1.541-9.181,4.632c3.054,12.117,1.077,20.521-9.264,17.29
										c-10.341-3.231-15.615,3.113-13.676,15.07c1.939,11.957,22.542,44.792,22.542,44.792l15.7,4.004l0.187,1.228l1.643-0.761
										l1.755,0.447l-0.041-1.241l14.704-6.806c0,0,14.253-36.047,13.974-48.158C277.258,137.544,270.913,132.27,261.337,137.338z
										"/>
									<g>
										<path style="fill:#E59E9E;" d="M231.288,134.022c6.082,4.093,13.571,5.789,20.494,4.025
											c-1.877-2.074-2.649-6.49-3.079-13.268c-0.403-6.353-5.219-7.215-9.508-5.621c-4.508-0.783-10.737-1.541-9.181,4.632
											C230.992,127.668,231.45,131.163,231.288,134.022z"/>
										<path style="fill:#E59E9E;" d="M258.778,181.172c-10.531,0.908-21.113,2.243-31.672,2.704
											c-2.796,0.122-5.655,0.169-8.507,0.321c3.068,5.254,6.335,8.865,6.335,8.865c9.861,3.122,19.731,3.389,21.878,3.142
											c2.156-0.149,10.21-0.297,19.334-5.169c0,0,2.738-4.399,5.145-10.965C267.121,180.445,262.95,180.812,258.778,181.172z"/>
									</g>
								</g>
							</g>
							<g>
								<path style="fill:#386182;" d="M226.854,180.497c10.565-0.554,21.131-1.793,31.672-2.704
									c4.668-0.404,9.336-0.812,14.003-1.232c1.32-3.907,2.418-7.788,2.745-10.657c0,0-15.122-4.978-16.966-28.065l-2.76,0.822
									c0,0,5.333,26.302-11.5,27.548c-15.355,1.136-16.342-24.982-16.342-24.982l-2.864-0.303
									c2.407,23.035-12.387,31.773-12.387,31.773c0.753,1.868,2.415,4.975,4.276,8.257
									C220.113,180.724,223.521,180.671,226.854,180.497z"/>
								<g>
									<path style="fill:#FF455F;" d="M254.843,137.165c0,0-5,19.606-22.407,24.614c-17.407,5.008-25.341-21.063-25.341-21.063
										s-10.163,0.512-19.555,4.781c0,0,0.667,11.851,11.037,22.807l9.125-2.543c0,0,3.629,12.099,9.771,22.924
										c0,0,32.689,8.474,55.036-2.946c0,0,4.584-14.888,4.65-23.402l6.789-0.2c0,0,3.59-11.818,3.112-26.239
										C287.059,135.897,268.985,129.054,254.843,137.165z"/>
									<g>
										<path style="fill:#C4374F;" d="M202.851,161.988c-3.844-5.834-5.922-12.524-8.464-18.99
											c-2.223,0.641-4.558,1.457-6.847,2.498c0,0,0.667,11.851,11.037,22.807l7.702-2.146
											C205.004,164.879,203.845,163.496,202.851,161.988z"/>
										<path style="fill:#C4374F;" d="M276.675,162.318c-6.316,4.513-13.332,7.634-20.672,10.214
											c-7.055,2.48-14.124,5.061-21.395,6.85c-6.642,1.634-13.674,2.83-20.554,2.665c1.03,2.191,2.172,4.44,3.419,6.637
											c0,0,32.689,8.474,55.036-2.946c0,0,4.176-13.569,4.611-22.207C276.956,163.133,276.806,162.73,276.675,162.318z"/>
									</g>
								</g>
							</g>
						</g>
						<g>
							<g>
								<g>
									<path style="fill:#FFAFAF;" d="M222.929,346.936c0.114,2.391,0.39,4.856,0.877,7.37
										c3.987,20.556,12.999,42.656,12.999,42.656s-15.45,13.978-13.261,15.032c2.189,1.054,22.625-8.781,23.488-13.045
										c0.571-2.823,0.74-27.495,0.986-49.895C239.736,347.228,231.388,346.18,222.929,346.936z"/>
									<path style="fill:#E59E9E;" d="M229.241,375.452c4.539,1.3,9.039,2.369,14.018,2.208c1.49-0.048,2.971-0.151,4.445-0.295
										c0.116-8.571,0.208-18.65,0.314-28.31c-8.281-1.825-16.629-2.874-25.089-2.118c0.114,2.391,0.39,4.856,0.877,7.37
										C225.202,361.505,227.215,368.889,229.241,375.452z"/>
								</g>
								<g>
									<path style="fill:#FFAFAF;" d="M285.999,394.938c18.903-58.237-4.636-86.616-4.636-86.616s-24.373-11.311-19.218,8.301
										s17.03,81.455,16.806,83.568c-0.044,0.416,0.205,0.461,0.63,0.27C285.275,402.894,327.046,420.468,285.999,394.938z"/>
									<path style="fill:#E59E9E;" d="M281.591,376.178c3.265-0.406,6.535-0.95,9.681-1.938
										c8.041-44.272-9.909-65.917-9.909-65.917s-24.373-11.311-19.218,8.301c3.11,11.83,8.664,39.024,12.533,59.208
										C276.994,376.138,279.316,376.461,281.591,376.178z"/>
								</g>
							</g>
							<g>
								<path style="fill:#37142E;" d="M267.794,196.948c-14.329,4.688-29.603,6.165-44.178,2.561
									c-6.644,12.359-17.683,36.951-14.978,59.86c3.813,32.29,21.161,57.055,21.161,57.055s-11.235,18.293-7.248,38.85
									c0.812,4.184,4.409,13.719,5.518,17.831c6.821,1.975,13.963,1.791,21.077,0.452c0.187-17.095-0.979-43.056-0.63-53.836
									c0.654-20.147,3.621-60.594,3.621-60.594s3.642,35.326,9.532,55.346c0.118,0.668,0.273,1.38,0.476,2.152
									c2.669,10.153,7.389,38.172,10.731,57.775c3.295-0.032,8.28-0.092,11.541-0.61c3.3-0.525,6.517-1.685,9.552-3.142
									c2.285-27.647-6.895-53.4-10.725-59.59C294.16,287.077,302.589,239.701,267.794,196.948z"/>
								<g>
									<path style="fill:#260E21;" d="M211.678,228.722c-2.691,9.714-4.256,20.349-3.04,30.647
										c3.813,32.29,21.161,57.055,21.161,57.055s-11.559,20.39-7.572,40.946c0.812,4.184,3.964,11.693,5.073,15.806
										c6.821,1.975,14.731,1.72,21.845,0.381c0.187-17.095-0.979-43.056-0.63-53.836c0.632-19.48,3.427-57.937,3.611-60.461
										C244.308,258.124,222.037,248.96,211.678,228.722z"/>
								</g>
							</g>
						</g>
						<g>
							<g>
								<path style="fill:#37142E;" d="M215.075,89.725c0.444,0.211,0.691,0.342,0.691,0.342s-0.078-0.299-0.3-0.834
									c-0.226-0.532-0.587-1.31-1.22-2.22c-0.631-0.912-1.517-1.983-2.915-2.975c-0.701-0.495-1.54-0.944-2.541-1.293
									c-1.003-0.34-2.172-0.515-3.423-0.484c-2.53,0.079-5.121,1.263-7.115,2.855c-2.019,1.596-3.624,3.558-4.971,5.622
									l-0.254,0.39l-0.127,0.196l-0.016,0.025c-0.066,0.137,0.125-0.273-0.152,0.314l-0.024,0.044l-0.049,0.088l-0.387,0.71
									l-0.191,0.359l-0.096,0.18l-0.048,0.09l-0.06,0.15c-0.16,0.406-0.316,0.819-0.462,1.239c-0.134,0.41-0.303,0.87-0.389,1.25
									l-0.246,1.144c-0.183,0.772-0.226,1.54-0.287,2.317c-0.182,3.111,0.429,6.054,1.309,8.61
									c0.894,2.569,2.052,4.816,3.232,6.861c1.182,2.043,2.417,3.874,3.535,5.553c1.059,1.581,2.009,3.028,2.726,4.294
									c0.076,0.625,0.067,1.208-0.05,1.745c-0.215,1.133-1.021,2.149-1.915,2.951c-0.417,0.438-0.917,0.752-1.357,1.087
									c-0.431,0.351-0.899,0.579-1.295,0.838c-0.799,0.514-1.486,0.842-1.943,1.093c-0.461,0.255-0.707,0.391-0.707,0.391
									s0.28-0.014,0.804-0.04c0.521-0.054,1.311-0.041,2.287-0.251c0.492-0.094,1.048-0.164,1.633-0.364
									c0.594-0.176,1.241-0.361,1.911-0.704c0.495-0.197,0.984-0.5,1.487-0.85c-0.084,0.155-0.173,0.309-0.272,0.461
									c-0.162,0.239-0.309,0.489-0.484,0.718c-0.195,0.212-0.382,0.429-0.563,0.644c-0.348,0.446-0.753,0.794-1.106,1.142
									c-0.7,0.71-1.341,1.206-1.759,1.586c-0.426,0.385-0.654,0.59-0.654,0.59s0.302,0.022,0.876,0.033
									c0.572,0.001,1.426,0.043,2.502-0.135c0.547-0.065,1.151-0.153,1.808-0.358c0.332-0.089,0.68-0.19,1.039-0.307
									c0.355-0.137,0.721-0.318,1.108-0.495c0.194-0.094,0.39-0.189,0.59-0.285c0.193-0.118,0.383-0.259,0.581-0.396
									c0.383-0.297,0.826-0.535,1.194-0.949c0.787-0.742,1.518-1.745,2.032-2.927c0.256-0.593,0.481-1.228,0.587-1.863
									c0.065-0.32,0.134-0.653,0.184-0.981c0.024-0.317,0.047-0.637,0.071-0.96c0.082-1.311-0.086-2.539-0.281-3.752
									c-0.439-2.4-1.236-4.578-2.085-6.661c-0.859-2.078-1.794-4.062-2.676-5.97c-0.878-1.906-1.701-3.748-2.288-5.463
									c-0.599-1.715-0.951-3.273-1.019-4.626c-0.01-0.336-0.051-0.682-0.005-0.995l0.016-0.488
									c0.003-0.162,0.034-0.217,0.037-0.336c0.007-0.105,0.002-0.215-0.007-0.33c-0.001-0.015-0.004-0.027-0.002-0.045
									l0.033-0.097l0.066-0.193l0.13-0.385l0.253-0.768l0.031-0.096l0.015-0.048c-0.27,0.573-0.07,0.148-0.128,0.271l0.008-0.02
									l0.063-0.155l0.126-0.311c0.649-1.677,1.364-3.151,2.092-4.32c0.362-0.568,0.744-1.075,1.113-1.465
									c0.37-0.409,0.752-0.744,1.172-0.992c0.827-0.525,1.948-0.734,3.101-0.643c1.098,0.076,2.154,0.369,3.046,0.67
									c0.12,0.064,0.246,0.129,0.359,0.192c0.81,0.464,1.441,0.888,1.853,1.199c0.416,0.308,0.635,0.488,0.635,0.488
									s-0.104-0.263-0.362-0.726C215.147,89.848,215.108,89.783,215.075,89.725z"/>
								<path style="fill:#FF455F;" d="M210.574,88.118c0.277,1.586,1.787,2.647,3.373,2.37c1.586-0.277,2.647-1.788,2.37-3.373
									c-0.277-1.586-1.787-2.647-3.373-2.37C211.357,85.022,210.297,86.532,210.574,88.118z"/>
								<path style="fill:#FFAFAF;" d="M239.95,79.261c0,0-20.605,3.251-17.757,25.143c2.849,21.891,17.917,28.515,25.688,27.695
									c7.771-0.82,17.522-9.709,13.863-32.509C258.185,77.409,246.45,79.174,239.95,79.261z"/>
								<path style="fill:#37142E;" d="M233.015,85.437c0,0,4.332,16.044-4.975,23.971c0,0-5.683-10.987-6.173-2.549
									c-0.381,6.558,4.768,8.713,5.991,6.971c0,0,0.554,7.54,2.304,9.907c0,0-16.893-9.266-17.037-27.569
									C212.926,70.833,234.008,78.008,233.015,85.437z"/>
								<path style="fill:#37142E;" d="M231.292,86.502c0,0,10.918,12.22,23.433,7.36l-5.094-2.928c0,0,15.098,1.18,14.926,26.411
									c0,0,12.094-26.933-5.095-42.257c-19.868-17.714-36.171,0.594-35.987,8.199C223.659,90.891,231.292,86.502,231.292,86.502z"
									/>
								<path style="fill:#FFAFAF;" d="M228.041,109.408c0,0-0.684-8.281-6.677-7.615c-5.803,0.645,0.385,17.497,6.495,12.038
									L228.041,109.408z"/>
							</g>
							<g>
								<path style="fill:#FFFFFF;" d="M239.911,119.877l14.468-0.586C254.38,119.29,248.491,128.551,239.911,119.877z"/>
								<g>
									<path style="fill:#C46565;" d="M249.286,106.503c0.709,1.547,1.268,3.057,1.913,4.499c0.079,0.181,0.156,0.361,0.242,0.535
										c0.088,0.174,0.158,0.358,0.249,0.527c0.174,0.345,0.346,0.688,0.542,1.011c0.188,0.326,0.387,0.647,0.607,0.937
										c0.117,0.137,0.211,0.306,0.336,0.433c0.125,0.127,0.242,0.266,0.363,0.405l0.834,0.952l-1.064,0.14
										c-1.103,0.145-2.22,0.234-3.373,0.169c1-0.577,2.037-1.002,3.087-1.37l-0.23,1.091c-0.382-0.258-0.755-0.545-1.057-0.882
										c-0.321-0.325-0.583-0.691-0.828-1.059c-0.238-0.375-0.449-0.758-0.629-1.155c-0.18-0.394-0.341-0.796-0.47-1.204
										c-0.277-0.812-0.434-1.651-0.535-2.489C249.185,108.202,249.158,107.353,249.286,106.503z"/>
								</g>
								<g>
									<path style="fill:#37142E;" d="M234.91,104.017c0,0,0.023-0.245,0.152-0.649c0.117-0.41,0.356-0.961,0.729-1.593
										c0.211-0.296,0.419-0.642,0.718-0.95c0.142-0.161,0.298-0.317,0.456-0.481c0.173-0.151,0.359-0.295,0.548-0.446
										c0.181-0.161,0.398-0.285,0.623-0.407c0.226-0.119,0.439-0.269,0.693-0.353c0.503-0.186,1.023-0.357,1.587-0.388
										c0.554-0.091,1.11,0.013,1.647,0.091c0.524,0.115,1.005,0.343,1.459,0.537c0.41,0.266,0.791,0.539,1.137,0.801
										c0.311,0.299,0.57,0.609,0.809,0.887c0.115,0.144,0.23,0.274,0.326,0.408c0.081,0.146,0.158,0.284,0.23,0.414
										c0.147,0.254,0.254,0.49,0.345,0.678c0.178,0.379,0.253,0.607,0.253,0.607s-0.235-0.098-0.598-0.29
										c-0.18-0.097-0.402-0.208-0.632-0.351c-0.228-0.149-0.499-0.289-0.8-0.415c-0.281-0.14-0.586-0.291-0.908-0.451
										c-0.332-0.109-0.665-0.227-0.995-0.367c-0.346-0.055-0.685-0.157-1.026-0.204c-0.344,0.011-0.683-0.08-1.023,0.004
										c-0.344-0.004-0.679,0.113-1.023,0.186c-0.333,0.123-0.682,0.222-1.007,0.39c-0.164,0.079-0.325,0.163-0.492,0.233
										c-0.159,0.092-0.314,0.182-0.465,0.27c-0.317,0.161-0.589,0.374-0.873,0.535c-0.258,0.191-0.531,0.343-0.747,0.508
										c-0.227,0.161-0.425,0.302-0.588,0.418C235.104,103.879,234.91,104.017,234.91,104.017z"/>
								</g>
								<g>
									<path style="fill:#37142E;" d="M250.193,103.552c0,0,0.051-0.931,0.703-2.134c0.174-0.292,0.353-0.624,0.61-0.931
										c0.248-0.315,0.536-0.634,0.894-0.92c0.163-0.158,0.354-0.294,0.568-0.414c0.209-0.123,0.409-0.267,0.645-0.361
										c0.477-0.189,0.972-0.366,1.517-0.393c0.535-0.092,1.066,0.037,1.579,0.118c0.482,0.155,0.95,0.357,1.348,0.59
										c0.37,0.27,0.719,0.54,1.021,0.81c0.263,0.303,0.492,0.604,0.696,0.878c0.223,0.259,0.359,0.542,0.473,0.794
										c0.124,0.244,0.211,0.469,0.286,0.649c0.144,0.365,0.204,0.58,0.204,0.58s-0.213-0.103-0.547-0.296
										c-0.346-0.175-0.753-0.516-1.296-0.79c-0.268-0.142-0.55-0.293-0.827-0.466c-0.299-0.124-0.607-0.24-0.904-0.385
										c-0.309-0.097-0.62-0.159-0.921-0.242c-0.307,0.016-0.607-0.093-0.907-0.01c-0.303-0.008-0.6,0.107-0.908,0.175
										c-0.294,0.133-0.614,0.213-0.902,0.395c-0.3,0.149-0.587,0.325-0.862,0.508c-0.279,0.174-0.537,0.37-0.788,0.54
										C250.913,102.979,250.193,103.552,250.193,103.552z"/>
								</g>
								<g>
									<path style="fill:#C46565;" d="M226.464,113.392c-0.397-0.103-0.785-0.253-1.154-0.464c-0.36-0.22-0.731-0.48-0.986-0.946
										c-0.122-0.237-0.179-0.535-0.138-0.845c0.062-0.293,0.192-0.565,0.363-0.762c0.164-0.225,0.356-0.341,0.541-0.514
										l0.576-0.366l-0.368,0.586c-0.06-0.495-0.12-1.025-0.218-1.529c-0.101-0.506-0.188-1.01-0.33-1.489
										c-0.064-0.243-0.145-0.473-0.232-0.697c-0.082-0.224-0.171-0.443-0.274-0.639l-0.161-0.286l-0.184-0.233
										c-0.13-0.128-0.254-0.262-0.391-0.317c-0.064-0.045-0.133-0.084-0.213-0.085l-0.115-0.028l-0.029-0.009l-0.015-0.005
										l-0.007-0.002l-0.004-0.001c-0.074,0.005,0.1-0.007,0.08-0.006l-0.003,0l-0.101,0.007
										c-0.123,0.012-0.296,0.012-0.378,0.034c-0.046,0.035-0.092,0.034-0.158,0.05c-0.064,0.046-0.142,0.072-0.212,0.123
										c-0.059,0.068-0.135,0.117-0.196,0.195c-0.123,0.158-0.224,0.353-0.325,0.566c-0.354,0.893-0.462,1.989-0.53,3.08
										c-0.207-0.513-0.354-1.054-0.432-1.611c-0.039-0.279-0.07-0.564-0.071-0.853c0-0.29,0.024-0.585,0.072-0.888
										c0.056-0.305,0.157-0.61,0.318-0.914c0.081-0.15,0.2-0.293,0.307-0.438c0.122-0.135,0.28-0.251,0.428-0.371
										c0.171-0.108,0.387-0.188,0.589-0.257c0.176-0.049,0.278-0.052,0.421-0.08l0.1-0.017l0.09-0.006l0.009,0l0.018,0.001
										l0.035,0.002l0.071,0.005l0.286,0.028c0.195,0.008,0.376,0.067,0.554,0.147c0.377,0.125,0.657,0.381,0.906,0.625
										l0.33,0.393l0.254,0.41c0.308,0.55,0.514,1.119,0.641,1.684c0.136,0.565,0.248,1.125,0.286,1.689
										c0.044,0.567,0.08,1.114,0.054,1.698l-0.019,0.439l-0.348,0.147l-0.48,0.203c-0.117,0.086-0.295,0.157-0.378,0.25
										c-0.041,0.045-0.115,0.084-0.146,0.128c-0.023,0.043-0.067,0.084-0.093,0.13c-0.033,0.087-0.059,0.193-0.028,0.329
										c0.054,0.277,0.272,0.602,0.526,0.884C225.854,112.858,226.149,113.132,226.464,113.392z"/>
								</g>
								<g>
									<path style="fill:#37142E;" d="M252.55,107.224c0,0,0.082,0.124,0.225,0.341c0.136,0.217,0.36,0.51,0.626,0.843
										c0.272,0.329,0.604,0.695,1.003,0.995c0.4,0.296,0.863,0.524,1.351,0.552c0.035,0.02,0.262-0.005,0.383-0.005
										c0.108-0.032,0.18-0.043,0.283-0.084c0.195-0.096,0.397-0.207,0.552-0.389c0.328-0.339,0.557-0.779,0.73-1.165
										c0.167-0.39,0.302-0.733,0.373-0.979c0.078-0.248,0.123-0.389,0.123-0.389s0.103,0.597-0.056,1.505
										c-0.088,0.448-0.247,0.986-0.634,1.488c-0.186,0.251-0.452,0.486-0.776,0.638c-0.159,0.076-0.377,0.127-0.549,0.163
										c-0.17,0.004-0.237,0.036-0.493,0.017c-0.34-0.037-0.677-0.123-0.971-0.273c-0.305-0.132-0.552-0.342-0.774-0.542
										c-0.44-0.412-0.732-0.877-0.933-1.287C252.618,107.826,252.55,107.224,252.55,107.224z"/>
								</g>
								<g>
									<path style="fill:#37142E;" d="M239.016,107.747c0,0,0.082,0.124,0.225,0.341c0.136,0.217,0.36,0.51,0.626,0.843
										c0.272,0.329,0.603,0.695,1.002,0.995c0.4,0.296,0.863,0.524,1.351,0.552c0.035,0.02,0.262-0.005,0.383-0.005
										c0.108-0.032,0.18-0.043,0.282-0.084c0.195-0.096,0.397-0.207,0.552-0.389c0.328-0.339,0.557-0.779,0.73-1.165
										c0.167-0.39,0.302-0.733,0.373-0.979c0.078-0.248,0.123-0.389,0.123-0.389s0.103,0.597-0.056,1.505
										c-0.088,0.448-0.247,0.986-0.634,1.488c-0.186,0.251-0.452,0.486-0.776,0.638c-0.159,0.076-0.377,0.127-0.549,0.163
										c-0.17,0.004-0.237,0.036-0.493,0.017c-0.34-0.037-0.677-0.123-0.971-0.273c-0.305-0.132-0.552-0.342-0.774-0.542
										c-0.44-0.412-0.732-0.877-0.933-1.287C239.084,108.35,239.016,107.747,239.016,107.747z"/>
								</g>
							</g>
						</g>
					</g>
				</g>
			</g>
			<g>
				<g>
					<path style="opacity:0.4;fill:#386182;" d="M337.169,438.944c0.097,0.993-0.63,1.877-1.623,1.974l-136.669,13.325
						c-0.993,0.097-1.877-0.63-1.974-1.623l0,0c-0.097-0.993,0.63-1.877,1.623-1.974l136.669-13.325
						C336.188,437.225,337.072,437.951,337.169,438.944L337.169,438.944z"/>
					<path style="fill:#386182;" d="M233.588,449.044c0.329,3.377-2.141,6.381-5.518,6.71c-3.377,0.329-6.381-2.141-6.71-5.518
						c-0.329-3.377,2.141-6.381,5.518-6.71C230.254,443.196,233.259,445.667,233.588,449.044z"/>
				</g>
				<g>
					
						<rect x="342.229" y="431.376" transform="matrix(0.9953 -0.097 0.097 0.9953 -40.9365 35.4902)" style="fill:#386182;" width="4.336" height="14.454"/>
					
						<rect x="349.422" y="430.674" transform="matrix(0.9953 -0.097 0.097 0.9953 -40.8345 36.1849)" style="fill:#386182;" width="4.336" height="14.454"/>
				</g>
				<polygon style="fill:#386182;" points="172.716,446.594 187.912,453.497 174.335,463.206 				"/>
			</g>
			<g>
				<path style="fill:#37142E;" d="M177.758,484.745c-13.039-0.432-23.617-10.581-24.603-23.607L123.051,63.763
					c-0.516-6.805,1.65-13.404,6.097-18.58c4.447-5.177,10.645-8.312,17.45-8.827l169.123-12.812c0.932-0.07,1.875-0.091,2.804-0.06
					c13.04,0.432,23.618,10.581,24.604,23.607l30.104,397.375c1.063,14.049-9.501,26.344-23.548,27.408l-169.124,12.812
					C179.63,484.755,178.686,484.776,177.758,484.745z M318.295,30.452c-0.678-0.022-1.366-0.008-2.046,0.044L147.125,43.308
					c-4.948,0.375-9.454,2.654-12.688,6.418c-3.234,3.764-4.808,8.562-4.433,13.51l30.103,397.375
					c0.717,9.472,8.405,16.851,17.882,17.165c0.678,0.022,1.366,0.007,2.047-0.044l169.124-12.812
					c10.215-0.773,17.896-9.713,17.122-19.928L336.177,47.617C335.46,38.146,327.772,30.766,318.295,30.452z"/>
				<path style="fill:#37142E;" d="M168.861,38.165l0.521,6.874c0.575,7.594,7.198,13.284,14.792,12.709l97.624-7.396
					c7.594-0.575,13.284-7.198,12.709-14.793l-0.521-6.874L168.861,38.165z"/>
			</g>
		</g>
		<g>
			<g>
				<g>
					<path style="fill:#FF455F;" d="M186.36,283.055c0,5.523-4.477,10-10,10h-129c-5.523,0-10-4.477-10-10v-88
						c0-5.523,4.477-10,10-10h129c5.523,0,10,4.477,10,10V283.055z"/>
					<path style="opacity:0.6;fill:#FFAFAF;" d="M37.36,211.055v72c0,5.523,4.477,10,10,10h129c5.523,0,10-4.477,10-10v-72H37.36z"
						/>
				</g>
				<g>
					<g>
						<circle style="fill:#FFFFFF;" cx="48.36" cy="197.555" r="3.5"/>
						<circle style="fill:#FFFFFF;" cx="60.61" cy="197.555" r="3.5"/>
						<circle style="fill:#FFFFFF;" cx="72.86" cy="197.555" r="3.5"/>
					</g>
					<g>
						<polygon style="fill:#FFFFFF;" points="61.059,278.055 92.36,223.84 123.661,278.055 						"/>
						<circle style="fill:#FFFFFF;" cx="124.86" cy="228.555" r="11.5"/>
					</g>
				</g>
			</g>
			<g>
				<g>
					
						<ellipse transform="matrix(0.976 -0.2176 0.2176 0.976 -38.3093 84.4963)" style="fill:#386182;" cx="364.545" cy="216.211" rx="36.149" ry="36.149"/>
					<polygon style="fill:#386182;" points="336.909,229.309 326.3,254.063 354.591,241.096 					"/>
				</g>
				<g>
					<rect x="340.969" y="205.559" style="fill:#FFFFFF;" width="38.768" height="25.496"/>
					<polygon style="fill:#FFFFFF;" points="390.041,230.057 369.085,217.958 390.041,205.859 					"/>
				</g>
			</g>
			<g>
				<g>
					<g>
						<circle style="fill:#FF455F;" cx="77.459" cy="108.153" r="36.149"/>
						<polygon style="fill:#FF455F;" points="105.094,121.251 115.703,146.005 87.413,133.038 						"/>
					</g>
				</g>
				<path style="fill:#FFFFFF;" d="M78.005,128.015l-0.874-0.464c-0.198-0.105-4.911-2.619-9.716-6.439
					c-6.72-5.342-10.168-10.462-10.248-15.217c-0.111-6.594,5.164-12.048,11.757-12.158l0.078-0.002
					c3.217-0.054,6.256,1.181,8.497,3.382c2.183-2.275,5.194-3.611,8.42-3.665l0.029,0c3.19-0.038,6.205,1.161,8.496,3.375
					c2.29,2.215,3.589,5.188,3.658,8.373l0,0.009c0.081,4.819-3.194,10.072-9.734,15.611c-4.677,3.962-9.308,6.598-9.502,6.708
					L78.005,128.015z"/>
			</g>
			<g>
				<g>
					<path style="fill:#FF455F;" d="M478.048,331.882c0,5.131-4.159,9.29-9.29,9.29h-138.42c-5.131,0-9.29-4.159-9.29-9.29v-43.663
						c0-5.131,4.159-9.29,9.29-9.29h138.42c5.131,0,9.29,4.159,9.29,9.29V331.882z"/>
					<polygon style="fill:#FF455F;" points="339.36,338.055 339.36,361.055 352.36,337.055 					"/>
				</g>
				<g>
					<g>
						
							<ellipse transform="matrix(0.9869 -0.161 0.161 0.9869 -45.4522 60.2442)" style="fill:#FFFFFF;" cx="348.918" cy="310.515" rx="17.186" ry="17.186"/>
						
							<ellipse transform="matrix(0.9869 -0.161 0.161 0.9869 -45.4522 60.2442)" style="opacity:0.6;fill:#FFAFAF;" cx="348.918" cy="310.515" rx="17.186" ry="17.186"/>
					</g>
					<g>
						<path style="fill:#FFFFFF;" d="M462.255,297.043c0,1.796-1.456,3.251-3.252,3.251h-81.287c-1.796,0-3.251-1.456-3.251-3.251
							l0,0c0-1.796,1.456-3.252,3.251-3.252h81.287C460.799,293.792,462.255,295.247,462.255,297.043L462.255,297.043z"/>
						<path style="fill:#FFFFFF;" d="M462.255,310.049c0,1.796-1.456,3.251-3.252,3.251h-81.287c-1.796,0-3.251-1.456-3.251-3.251
							l0,0c0-1.796,1.456-3.251,3.251-3.251h81.287C460.799,306.798,462.255,308.253,462.255,310.049L462.255,310.049z"/>
						<path style="fill:#FFFFFF;" d="M462.255,323.055c0,1.796-1.456,3.251-3.252,3.251h-81.287c-1.796,0-3.251-1.456-3.251-3.251
							l0,0c0-1.796,1.456-3.251,3.251-3.251h81.287C460.799,319.803,462.255,321.259,462.255,323.055L462.255,323.055z"/>
					</g>
				</g>
			</g>
			<g>
				<path style="fill:#386182;" d="M158.11,314.555h-66c-5.523,0-10,4.477-10,10v29c0,5.523,4.477,10,10,10h63.087l12.913,13.5
					v-23.5v-15v-14C168.11,319.032,163.633,314.555,158.11,314.555z"/>
				<g>
					<circle style="fill:#FFFFFF;" cx="100.61" cy="338.555" r="6.625"/>
					<circle style="fill:#FFFFFF;" cx="125.11" cy="338.555" r="6.625"/>
					<circle style="fill:#FFFFFF;" cx="149.61" cy="338.555" r="6.625"/>
				</g>
			</g>
			<g>
				<path style="fill:#386182;" d="M379.223,109.017h60.245c5.041,0,9.128,4.087,9.128,9.128v26.471
					c0,5.041-4.087,9.128-9.128,9.128h-57.586l-11.787,12.323v-21.451v-13.692v-12.779
					C370.095,113.104,374.182,109.017,379.223,109.017z"/>
				<g>
					<path style="fill:#FFFFFF;" d="M425.661,130.924c0,3.34,2.707,6.047,6.047,6.047c3.34,0,6.047-2.708,6.047-6.047
						c0-3.34-2.708-6.047-6.047-6.047C428.369,124.877,425.661,127.584,425.661,130.924z"/>
					<circle style="fill:#FFFFFF;" cx="409.345" cy="130.924" r="6.047"/>
					<path style="fill:#FFFFFF;" d="M380.934,130.924c0,3.34,2.707,6.047,6.047,6.047c3.34,0,6.047-2.708,6.047-6.047
						c0-3.34-2.707-6.047-6.047-6.047C383.642,124.877,380.934,127.584,380.934,130.924z"/>
				</g>
			</g>
		</g>
	</g>
</g>
</svg>
