<?xml version="1.0" encoding="utf-8"?>
<!-- Generator: Adobe Illustrator 27.5.0, SVG Export Plug-In . SVG Version: 6.00 Build 0)  -->
<svg version="1.1" xmlns="http://www.w3.org/2000/svg" xmlns:xlink="http://www.w3.org/1999/xlink" x="0px" y="0px"
	 viewBox="0 0 500 500" style="enable-background:new 0 0 500 500;" xml:space="preserve">
<g id="Background_Simple">
	<g>
		<path style="fill:#C6FF00;" d="M313.792,25.663c0,0-78.52-17.54-151.245,33.444C89.822,110.092,57.112,198.281,28.714,269.18
			c-28.398,70.899-5.235,136.946,54.321,161.348c59.556,24.402,95.776-26.032,176.396-37.683
			c80.62-11.651,103.055-2.985,167.249-55.056c64.193-52.071,69.639-158.002,11.84-229.172
			C380.72,37.446,313.792,25.663,313.792,25.663z"/>
		<path style="opacity:0.7;fill:#FFFFFF;" d="M313.792,25.663c0,0-78.52-17.54-151.245,33.444
			C89.822,110.092,57.112,198.281,28.714,269.18c-28.398,70.899-5.235,136.946,54.321,161.348
			c59.556,24.402,95.776-26.032,176.396-37.683c80.62-11.651,103.055-2.985,167.249-55.056
			c64.193-52.071,69.639-158.002,11.84-229.172C380.72,37.446,313.792,25.663,313.792,25.663z"/>
	</g>
</g>
<g id="Medal">
	<g>
		<g>
			<g>
				<defs>
					<polygon id="XMLID_2_" points="216.975,190.404 171.206,363.884 222.881,332.879 252.409,376.434 248.718,194.095 					"/>
				</defs>
				<use xlink:href="#XMLID_2_"  style="overflow:visible;fill:#C6FF00;"/>
				<clipPath id="XMLID_00000135680011877499886180000008978302121740083861_">
					<use xlink:href="#XMLID_2_"  style="overflow:visible;"/>
				</clipPath>
				<polygon style="clip-path:url(#XMLID_00000135680011877499886180000008978302121740083861_);fill:#FFFFFF;" points="
					224.94,323.556 182.263,349.161 222.147,197.988 241.906,200.285 245,353.146 				"/>
				<path style="opacity:0.3;clip-path:url(#XMLID_00000135680011877499886180000008978302121740083861_);" d="M249.563,235.801
					l-0.844-41.707l-31.743-3.691l-9.79,37.109c3.495,7.036,5.897,16.401,12.02,18.389c8.228,2.671,19.288-10.288,28.407-10.288
					C248.252,235.613,248.904,235.683,249.563,235.801z"/>
			</g>
			<g>
				<defs>
					<polygon id="XMLID_1_" points="280.058,191.726 352.998,355.647 304.829,331.306 274.849,381.029 249.314,200.449 					"/>
				</defs>
				<use xlink:href="#XMLID_1_"  style="overflow:visible;fill:#C6FF00;"/>
				<clipPath id="XMLID_00000139997112575447955130000015092247700568398488_">
					<use xlink:href="#XMLID_1_"  style="overflow:visible;"/>
				</clipPath>
				<polygon style="clip-path:url(#XMLID_00000139997112575447955130000015092247700568398488_);fill:#FFFFFF;" points="
					257.03,205.47 276.166,200.04 338.743,340.672 302.213,322.213 278.985,360.738 				"/>
				<path style="opacity:0.3;clip-path:url(#XMLID_00000139997112575447955130000015092247700568398488_);" d="M280.058,191.726
					l-30.744,8.723l4.876,34.48c0.151-0.007,0.303-0.02,0.453-0.02c9.118,0,20.179,12.96,28.407,10.288
					c6.307-2.048,8.667-11.922,12.34-19.016L280.058,191.726z"/>
			</g>
			<path style="fill:#C6FF00;" d="M346.551,146.515c0,9.118-15.847,15.62-18.519,23.847c-2.769,8.527,6.134,23.084,0.968,30.182
				c-5.217,7.169-21.847,3.173-29.016,8.39c-7.098,5.166-8.407,22.243-16.934,25.012c-8.228,2.672-19.289-10.288-28.407-10.288
				c-9.118,0-20.179,12.96-28.407,10.288c-8.527-2.769-9.837-19.846-16.935-25.012c-7.169-5.217-23.799-1.222-29.016-8.391
				c-5.166-7.098,3.737-21.654,0.968-30.182c-2.672-8.228-18.519-14.729-18.519-23.848c0-9.118,15.847-15.619,18.519-23.847
				c2.769-8.527-6.134-23.084-0.968-30.182c5.217-7.169,21.847-3.173,29.016-8.391c7.098-5.165,8.407-22.243,16.934-25.012
				c8.228-2.672,19.289,10.288,28.407,10.288c9.118,0,20.179-12.96,28.407-10.288c8.527,2.769,9.837,19.846,16.935,25.012
				c7.169,5.217,23.799,1.222,29.016,8.391c5.165,7.098-3.737,21.654-0.968,30.182C330.703,130.895,346.551,137.397,346.551,146.515
				z"/>
			<path style="opacity:0.6;fill:#FFFFFF;" d="M336.522,146.515c0,8.123-14.118,13.915-16.498,21.245
				c-2.467,7.597,5.465,20.565,0.862,26.889c-4.648,6.387-19.463,2.827-25.85,7.475c-6.323,4.602-7.49,19.816-15.086,22.283
				c-7.33,2.38-17.184-9.165-25.307-9.165c-8.123,0-17.977,11.546-25.307,9.166c-7.597-2.467-8.763-17.681-15.087-22.283
				c-6.387-4.648-21.202-1.088-25.85-7.475c-4.602-6.323,3.329-19.292,0.863-26.888c-2.38-7.33-16.498-13.122-16.498-21.245
				c0-8.123,14.118-13.915,16.498-21.245c2.467-7.597-5.465-20.565-0.863-26.889c4.648-6.387,19.463-2.827,25.85-7.475
				c6.323-4.602,7.49-19.816,15.087-22.283c7.33-2.38,17.184,9.165,25.307,9.165c8.123,0,17.977-11.546,25.307-9.166
				c7.597,2.467,8.763,17.681,15.087,22.283c6.387,4.648,21.202,1.088,25.85,7.475c4.602,6.323-3.329,19.291-0.863,26.888
				C322.404,132.6,336.522,138.391,336.522,146.515z"/>
			<path style="fill:none;" d="M346.551,146.515c0,9.118-15.847,15.62-18.519,23.847c-2.769,8.527,6.134,23.084,0.968,30.182
				c-5.217,7.169-21.847,3.173-29.016,8.39c-7.098,5.166-8.407,22.243-16.934,25.012c-8.228,2.672-19.289-10.288-28.407-10.288
				c-9.118,0-20.179,12.96-28.407,10.288c-8.527-2.769-9.837-19.846-16.935-25.012c-7.169-5.217-23.799-1.222-29.016-8.391
				c-5.166-7.098,3.737-21.654,0.968-30.182c-2.672-8.228-18.519-14.729-18.519-23.848c0-9.118,15.847-15.619,18.519-23.847
				c2.769-8.527-6.134-23.084-0.968-30.182c5.217-7.169,21.847-3.173,29.016-8.391c7.098-5.165,8.407-22.243,16.934-25.012
				c8.228-2.672,19.289,10.288,28.407,10.288c9.118,0,20.179-12.96,28.407-10.288c8.527,2.769,9.837,19.846,16.935,25.012
				c7.169,5.217,23.799,1.222,29.016,8.391c5.165,7.098-3.737,21.654-0.968,30.182C330.703,130.895,346.551,137.397,346.551,146.515
				z"/>
		</g>
		<g>
			<circle style="fill:#FFFFFF;" cx="254.643" cy="146.515" r="68.285"/>
			<g>
				<path style="fill:#263238;" d="M222.102,114.546c8.159-4.008,14.6-6.298,25.049-18.751h25.477v81.015h13.312v19.037h-57.253
					v-19.037h14.313v-53.103l-14.313,6.727L222.102,114.546z"/>
			</g>
		</g>
	</g>
</g>
<g id="Character_2">
	<g>
		<ellipse style="opacity:0.2;" cx="363" cy="462" rx="97" ry="19"/>
		<g>
			<g>
				<path style="fill:#C6FF00;stroke:#263238;stroke-linecap:round;stroke-linejoin:round;stroke-miterlimit:10;" d="
					M452.668,220.419c-1.522-7.104-2.368-6.766-10.994-9.472c-8.626-2.706-18.267-4.567-29.262-4.905
					c-10.994-0.338-18.944,2.199-18.944,2.199s-10.844,1.356-18.614,3.085c-6.669,13.317,0.854,31.59,0.854,31.59
					s9.472,20.805,9.472,31.461s-8.119,29.262-8.457,29.769c-0.338,0.507-25.033,43.47-31.291,58.016s-6.427,20.466-3.045,26.217
					c3.383,5.751,41.948,58.862,41.948,58.862s-10.318,11.84-15.054,14.885c-4.736,3.045-10.656,3.552-8.626,6.089
					c2.03,2.537,15.73,3.552,19.451,2.706s12.178-8.288,17.083-11.671c4.905-3.383,9.303-5.751,7.442-9.979
					c-1.861-4.229-5.92-7.95-7.611-11.333c-1.691-3.383-7.781-13.193-11.163-25.372c-3.383-12.178-5.92-19.452-9.81-26.048
					c-3.89-6.597-6.597-9.134-6.597-9.134s14.546-13.362,22.327-20.128c7.781-6.766,14.716-12.348,14.716-12.348
					s26.386-27.063,28.754-32.983c2.368-5.92,8.795-24.526,13.531-40.763C453.513,254.924,454.19,227.523,452.668,220.419z"/>
			</g>
			<g>
				
					<path id="XMLID_342_" style="fill:#263238;stroke:#263238;stroke-linecap:round;stroke-linejoin:round;stroke-miterlimit:10;" d="
					M375.708,242.915c0,0-7.523-18.273-0.854-31.59c-2.126,0.473-4.023,0.974-5.404,1.482c-6.427,2.368-37.719,15.561-40.933,16.914
					c-3.214,1.353-9.134,6.258-7.611,11.333c1.522,5.074,3.89,6.597,14.715,6.766C346.446,247.989,375.708,242.915,375.708,242.915z
					"/>
				
					<path id="XMLID_318_" style="fill:#FFFFFF;stroke:#263238;stroke-linecap:round;stroke-linejoin:round;stroke-miterlimit:10;" d="
					M352.704,150.563c0,0,9.641,4.905,10.149,5.751c0.507,0.846-0.169,2.706-0.846,4.059c-0.677,1.353-4.398,4.567-6.089,5.243
					c-1.691,0.676-0.338-4.398-0.338-7.273s-4.905-5.243-5.413-6.597C349.66,150.393,351.351,150.055,352.704,150.563z"/>
				
					<path id="XMLID_310_" style="fill:#263238;stroke:#263238;stroke-linecap:round;stroke-linejoin:round;stroke-miterlimit:10;" d="
					M334.268,246.636c0,0,0,0-3.721,1.015c-3.721,1.015-10.149,1.522-11.163,0.169c-1.015-1.353-4.567-19.282-4.06-29.262
					c0.508-9.979,15.392-52.604,17.084-55.817c1.691-3.214,16.238-13.701,16.238-13.701s1.861-0.507,4.059,1.522
					c2.199,2.03,8.457,6.258,8.119,7.95c-0.338,1.691-3.89,6.766-5.413,8.119c-1.522,1.353-3.89,0-3.89,0s-1.861,3.214-4.229,4.229
					c-2.368,1.015-7.95-0.169-7.95-0.169s-4.567,28.416-3.214,39.241c1.353,10.825,4.059,23.511,2.03,29.6"/>
				
					<path id="XMLID_325_" style="fill:#FFFFFF;stroke:#263238;stroke-linecap:round;stroke-linejoin:round;stroke-miterlimit:10;" d="
					M347.292,170.86c2.368-1.015,4.229-4.229,4.229-4.229s2.368,1.353,3.89,0c1.522-1.353,5.074-6.427,5.413-8.119
					c0.338-1.691-5.92-5.92-8.119-7.95c-2.199-2.03-4.059-1.522-4.059-1.522s-14.546,10.487-16.238,13.701
					c-0.411,0.781-1.602,3.893-3.175,8.293c2.328,1.533,5.806,3.342,9.514,3.597c0.355-2.44,0.596-3.941,0.596-3.941
					S344.924,171.875,347.292,170.86z"/>
				
					<path id="XMLID_319_" style="fill:#FFFFFF;stroke:#263238;stroke-linecap:round;stroke-linejoin:round;stroke-miterlimit:10;" d="
					M362.335,160.046c0,0,2.368,0.676,1.691,2.368c-0.677,1.691-3.214,3.552-4.736,3.383c-1.522-0.169-1.861-2.199-0.846-3.89
					C359.459,160.215,361.489,159.369,362.335,160.046z"/>
				<path id="XMLID_320_" style="fill:none;stroke:#263238;stroke-linecap:round;stroke-linejoin:round;stroke-miterlimit:10;" d="
					M351.52,166.631c0,0-1.353-1.522-0.507-2.706c0.846-1.184,2.537-0.338,2.537-0.338l-2.537-3.214"/>
			</g>
			<g>
				
					<circle id="XMLID_333_" style="fill:#FFFFFF;stroke:#263238;stroke-linecap:round;stroke-linejoin:round;stroke-miterlimit:10;" cx="371.606" cy="280.531" r="9.571"/>
				
					<path id="XMLID_337_" style="fill:#FFFFFF;stroke:#263238;stroke-linecap:round;stroke-linejoin:round;stroke-miterlimit:10;" d="
					M369.097,271.146c0,0,2.416-8.177,11.894-11.708c9.478-3.531,24.902-7.248,33.823-18.955c8.92-11.708,5.698-34.116,5.698-34.116
					l6.939,0.939c0,0-0.929,22.398-5.389,34.292c-4.46,11.894-18.026,18.584-28.805,20.442
					C382.478,263.898,373.557,263.712,369.097,271.146z"/>
				
					<path id="XMLID_338_" style="fill:#FFFFFF;stroke:#263238;stroke-linecap:round;stroke-linejoin:round;stroke-miterlimit:10;" d="
					M369.097,271.146c0,0-1.115-7.619,5.761-15.61c6.876-7.991,18.026-16.725,19.885-24.902c1.858-8.177-0.186-22.301-0.186-22.301
					l5.947-1.673c0,0,2.788,10.964,0.186,22.486c-2.602,11.522-8.92,17.097-16.725,23.044
					C376.159,258.137,369.097,271.146,369.097,271.146z"/>
			</g>
			<g>
				
					<path id="XMLID_324_" style="fill:#263238;stroke:#263238;stroke-linecap:round;stroke-linejoin:round;stroke-miterlimit:10;" d="
					M445.733,214.329c0,0-6.258,4.567-6.935,13.362c-0.677,8.796,0.846,31.968,0.846,41.102s-6.766,22.834-5.751,29.938
					c1.015,7.104,10.318,15.561,15.392,9.979c5.074-5.582,8.965-23.511,10.825-46.683c1.861-23.173,0.338-38.734-2.537-43.47
					C454.697,213.822,449.961,210.777,445.733,214.329z"/>
				<g id="XMLID_321_">
					
						<path id="XMLID_322_" style="fill:#263238;stroke:#263238;stroke-linecap:round;stroke-linejoin:round;stroke-miterlimit:10;" d="
						M451.315,301.776c-1.015,5.751-4.229,11.333-7.611,12.517c-3.383,1.184-7.273-3.552-12.686-12.348
						c-5.413-8.795-8.288-18.437-10.318-28.585c-2.03-10.148-3.89-24.187-4.059-28.078c-0.169-3.89,0-4.905,2.199-7.273
						c2.199-2.368,10.149-4.229,10.149-4.229s0.677-1.184,1.353-2.368c0.677-1.184,4.229-1.861,5.92-0.846
						c1.691,1.015,2.537,6.596,2.537,6.596s4.736,2.706,4.736,5.413s-3.045,5.582-6.427,10.149
						c-3.383,4.567-4.398,2.875-4.736,7.104c-0.338,4.229,2.03,9.81,6.258,13.701c4.229,3.89,10.318,8.626,12.009,16.238"/>
					
						<path id="XMLID_327_" style="fill:#FFFFFF;stroke:#263238;stroke-linecap:round;stroke-linejoin:round;stroke-miterlimit:10;" d="
						M432.343,260.767c-0.004-0.318,0.003-0.632,0.027-0.938c0.338-4.229,1.353-2.537,4.736-7.104
						c3.383-4.567,6.427-7.442,6.427-10.149s-4.736-5.413-4.736-5.413s-0.846-5.582-2.537-6.596
						c-1.691-1.015-5.243-0.338-5.92,0.846c-0.677,1.184-1.353,2.368-1.353,2.368s-7.95,1.86-10.149,4.229
						c-2.199,2.368-2.368,3.383-2.199,7.273c0.11,2.524,0.932,9.322,2.05,16.558C422.005,262.479,426.991,262.778,432.343,260.767z"
						/>
				</g>
			</g>
			
				<path id="XMLID_330_" style="fill:#787878;stroke:#263238;stroke-linecap:round;stroke-linejoin:round;stroke-miterlimit:10;" d="
				M435.457,311.391c-20.362-6.806-45.604-10.041-57.018-11.238c-0.94,2.337-1.624,3.852-1.717,3.992
				c-0.338,0.507-25.033,43.47-31.291,58.016s-6.427,20.466-3.045,26.217c3.383,5.751,41.948,58.862,41.948,58.862
				c6.199-0.759,11.734-4.924,14.132-6.975c-0.565-0.794-1.067-1.57-1.446-2.327c-1.691-3.383-7.781-13.193-11.163-25.372
				c-3.383-12.178-5.92-19.451-9.81-26.048c-3.89-6.597-6.597-9.134-6.597-9.134s14.546-13.362,22.327-20.128
				c7.781-6.766,14.715-12.348,14.715-12.348s26.386-27.063,28.754-32.983C435.313,311.758,435.384,311.577,435.457,311.391z"/>
			<g id="XMLID_323_">
				
					<path id="XMLID_331_" style="fill:#C6FF00;stroke:#263238;stroke-linecap:round;stroke-linejoin:round;stroke-miterlimit:10;" d="
					M398.466,440.264c-1.937,3.681-10.072,10.696-10.072,10.696s-2.03-2.199-3.214-3.721c-0.893-1.148-1.208-0.853-1.31-0.639
					c0.301,0.415,0.464,0.639,0.464,0.639s-10.318,11.84-15.054,14.885c-4.736,3.045-10.656,3.552-8.626,6.089
					c2.03,2.537,15.73,3.552,19.451,2.706c3.721-0.846,12.178-8.288,17.083-11.671c4.905-3.383,9.303-5.751,7.442-9.979
					C403.187,445.988,400.423,443.013,398.466,440.264z"/>
				
					<path id="XMLID_332_" style="fill:#FFFFFF;stroke:#263238;stroke-linecap:round;stroke-linejoin:round;stroke-miterlimit:10;" d="
					M377.399,468.89c-3.505,0.909-12.882-1.071-17.056-2.041c-0.186,0.394-0.113,0.835,0.311,1.364
					c2.03,2.537,15.73,3.552,19.451,2.706c3.721-0.846,12.178-8.288,17.083-11.671c4.905-3.383,9.303-5.751,7.442-9.979
					c-0.216-0.491-0.464-0.974-0.732-1.452c-0.886,1.177-1.915,2.507-2.989,3.82C397.865,455.358,381.966,467.706,377.399,468.89z"
					/>
			</g>
			<g id="XMLID_326_">
				
					<path id="XMLID_328_" style="fill:#787878;stroke:#263238;stroke-linecap:round;stroke-linejoin:round;stroke-miterlimit:10;" d="
					M425.097,319.875c0,0-14.715-13.193-29.093-17.929c-14.377-4.736-41.102-3.383-47.867-0.677
					c-6.766,2.706-3.89,11.333-3.721,21.312c0.169,9.979,6.935,28.416,9.81,38.903c2.875,10.487,3.89,22.158,4.229,26.217
					c0.338,4.059,0.338,5.582,0.338,5.582s-18.775-0.169-23.68-0.677c-4.905-0.508-7.781,1.015-8.626,2.706
					c-0.846,1.691-0.508,2.875-0.508,2.875s12.686,8.288,23.68,12.855c10.994,4.567,21.481,7.442,22.834,6.766
					c1.353-0.677,2.706-10.994,2.706-18.098s2.199-41.271,2.199-47.36c0-6.089,0-15.73,0-15.73s32.814,17.422,45.838,13.362
					c13.024-4.059,12.22-38.592,12.22-38.592l-10.529-3.356"/>
				
					<path id="XMLID_335_" style="fill:#C6FF00;stroke:#263238;stroke-linecap:round;stroke-linejoin:round;stroke-miterlimit:10;" d="
					M358.793,393.283c0,0-18.775-0.169-23.68-0.677c-4.905-0.508-7.781,1.015-8.626,2.706c-0.846,1.691-0.508,2.875-0.508,2.875
					s12.686,8.288,23.68,12.855c10.994,4.567,21.481,7.442,22.834,6.766c1.191-0.596,2.382-8.663,2.65-15.432
					C368.178,396.447,358.793,393.283,358.793,393.283z"/>
				
					<path id="XMLID_336_" style="fill:#FFFFFF;stroke:#263238;stroke-linecap:round;stroke-linejoin:round;stroke-miterlimit:10;" d="
					M372.494,417.809c0.531-0.265,1.061-2.016,1.51-4.473c-3.709-0.243-9.984-1.08-17.241-3.815
					c-9.564-3.604-25.145-11.182-30.46-13.801c-0.606,1.47-0.324,2.468-0.324,2.468s12.686,8.288,23.68,12.855
					C360.654,415.61,371.141,418.485,372.494,417.809z"/>
				<path id="XMLID_329_" style="fill:none;stroke:#263238;stroke-linecap:round;stroke-linejoin:round;stroke-miterlimit:10;" d="
					M377.399,336.62c0,0-0.169-14.715-7.611-21.989"/>
			</g>
			<g>
				<g>
					
						<path id="XMLID_26_" style="fill:#FFFFFF;stroke:#263238;stroke-linecap:round;stroke-linejoin:round;stroke-miterlimit:10;" d="
						M365.832,189.881c0,0,4.03,13.217,5.802,17.891c1.773,4.674,1.934,7.253,7.575,12.572c5.641,5.319,6.77,9.51,12.572,9.993
						c5.802,0.484,8.059-3.062,8.059-3.062s0.806,5.319,3.868,6.931c3.062,1.612,9.832,1.934,14.022-6.286
						c4.191-8.22,1.612-12.249,0.161-16.118c-1.451-3.868-3.385-8.704-3.385-8.704s3.385-4.352,3.062-9.993
						c-0.322-5.641-1.934-6.286-3.707-6.77c-1.773-0.484-6.769,2.74-8.865,1.773c-2.095-0.967,1.451-6.447-4.191-6.931
						c-5.641-0.484-11.444,7.253-21.598,8.059C369.055,190.043,365.51,186.819,365.832,189.881z"/>
					
						<path id="XMLID_308_" style="fill:#FFFFFF;stroke:#263238;stroke-linecap:round;stroke-linejoin:round;stroke-miterlimit:10;" d="
						M399.84,227.275c0,0,5.158-5.802,9.187-10.315c4.029-4.513,4.029-11.282,4.029-11.282"/>
					<path id="XMLID_311_" style="fill:none;stroke:#263238;stroke-linecap:round;stroke-linejoin:round;stroke-miterlimit:10;" d="
						M381.789,205.677c0,0,1.128,5.158,0,7.737c-1.128,2.579-0.161,3.868,1.773,4.029c1.934,0.161,2.74-0.322,2.74-0.322"/>
					
						<path id="XMLID_312_" style="fill:none;stroke:#263238;stroke-width:2;stroke-linecap:round;stroke-linejoin:round;stroke-miterlimit:10;" d="
						M387.752,206.16c0,0,1.128-3.385,6.447-2.418"/>
					
						<path id="XMLID_313_" style="fill:none;stroke:#263238;stroke-width:2;stroke-linecap:round;stroke-linejoin:round;stroke-miterlimit:10;" d="
						M374.374,207.128c0,0,3.062-1.773,5.319,0.645"/>
					<path id="XMLID_314_" style="fill:none;stroke:#263238;stroke-linecap:round;stroke-linejoin:round;stroke-miterlimit:10;" d="
						M371.634,201.97c0,0,3.707-3.707,8.059,2.095"/>
					<path id="XMLID_315_" style="fill:none;stroke:#263238;stroke-linecap:round;stroke-linejoin:round;stroke-miterlimit:10;" d="
						M384.851,202.453c0,0,1.773-5.964,7.253-5.158"/>
					<path id="XMLID_316_" style="fill:none;stroke:#263238;stroke-linecap:round;stroke-linejoin:round;stroke-miterlimit:10;" d="
						M389.848,218.732c0,0,8.381-1.612,9.993-11.444c0,0,4.181,6.624,1.28,11.943c-2.901,5.319-6.76,4.497-6.76,4.497
						L389.848,218.732z"/>
				</g>
				
					<path id="XMLID_24_" style="fill:#263238;stroke:#263238;stroke-linecap:round;stroke-linejoin:round;stroke-miterlimit:10;" d="
					M371.312,171.185c0,0,4.191-5.802-0.484-4.996c-4.674,0.806-12.411,9.832-11.444,18.374c0.967,8.542,18.213,10.477,26.594,9.187
					c8.381-1.289,13.378-6.608,13.378-6.608s-3.062,6.608,0.161,7.414c3.224,0.806,4.835,0,4.835,0s3.062,6.931,4.03,4.835
					c0.967-2.095-0.231-3.749,0.322-6.447c1.289-6.286,5.964-6.125,5.964-6.125s0.806-15.634-4.996-21.759
					c-5.802-6.125-20.953-6.77-27.239-3.546C376.147,164.738,371.312,171.185,371.312,171.185z"/>
			</g>
		</g>
	</g>
</g>
<g id="Character_1">
	<g>
		<ellipse style="opacity:0.2;" cx="128" cy="462" rx="97" ry="19"/>
		<g>
			<path id="XMLID_23_" style="fill:#C6FF00;stroke:#263238;stroke-linecap:round;stroke-linejoin:round;stroke-miterlimit:10;" d="
				M63.614,441.117c0,0-12.619,6.52-17.667,12.409c-5.048,5.889,0.631,9.885,10.937,6.52c10.306-3.365,14.091-17.877,14.091-17.877
				S67.4,439.224,63.614,441.117z"/>
			<path id="XMLID_25_" style="fill:#C6FF00;stroke:#263238;stroke-linecap:round;stroke-linejoin:round;stroke-miterlimit:10;" d="
				M197.611,441.117c0,0,12.619,6.52,17.667,12.409c5.048,5.889-0.631,9.885-10.937,6.52c-10.306-3.365-14.092-17.877-14.092-17.877
				S193.825,439.224,197.611,441.117z"/>
			<g>
				
					<path id="XMLID_295_" style="fill:#263238;stroke:#263238;stroke-linecap:round;stroke-linejoin:round;stroke-miterlimit:10;" d="
					M118.111,174.378l-0.156,11.215c0,0-6.386-1.402-13.863-4.05c-7.477-2.648-9.346-0.312-13.707,3.427
					c-4.361,3.738-25.234,27.726-27.414,29.751c-2.181,2.025-9.034,12.461-9.034,17.757c0,5.296,4.206,9.034,12.617,4.517
					c8.411-4.517,23.832-16.667,23.832-16.667s7.944,23.676,8.1,27.726c0.156,4.05-5.452,12.928-8.411,21.028
					c-2.96,8.1-4.361,30.685-6.386,38.474c-2.025,7.788-7.165,15.888-11.215,36.604c-4.05,20.717-4.361,36.604-5.296,40.654
					c-0.935,4.05-2.181,19.47-3.583,31.62s-2.336,25.545-0.779,26.947c1.558,1.402,6.075,2.336,8.256,0
					c2.181-2.336,18.536-43.77,21.807-53.271c3.271-9.502,25.389-52.492,27.259-57.321c1.869-4.829,5.296-11.527,5.296-11.527
					s11.527,21.495,15.421,32.243c3.894,10.748,25.234,52.181,31.153,63.084c5.919,10.903,15.576,25.389,18.224,26.791
					c2.648,1.402,6.914,0.538,7.381-2.265c0.467-2.804-3.954-45.866-7.225-53.966c-3.271-8.1-5.452-12.617-6.386-18.536
					s-9.969-54.362-14.174-63.24c-4.206-8.878-4.829-10.592-4.984-11.059c-0.156-0.467-3.115-10.904-7.477-21.495
					c-4.361-10.592-9.19-20.093-9.19-20.093l7.944-21.807c0,0,11.682,24.143,17.134,29.284c5.452,5.14,23.209,27.259,23.209,27.259
					l5.607-5.608l-18.069-30.997c0,0-3.894-20.094-8.567-32.71s-8.1-21.963-14.174-24.766c-6.075-2.804-19.159-3.583-21.495-4.517
					c-2.337-0.935-1.558-1.713-1.713-2.181c-0.156-0.467,0.779-10.903,0.779-10.903s-8.723,2.959-12.773,1.713
					C122.005,176.247,118.111,174.378,118.111,174.378z"/>
				
					<line style="fill:none;stroke:#696969;stroke-linecap:round;stroke-linejoin:round;stroke-miterlimit:10;" x1="151.667" y1="286.333" x2="133.667" y2="309.667"/>
				
					<line style="fill:none;stroke:#696969;stroke-linecap:round;stroke-linejoin:round;stroke-miterlimit:10;" x1="94.333" y1="288.333" x2="114.333" y2="309"/>
				
					<line style="fill:none;stroke:#696969;stroke-linecap:round;stroke-linejoin:round;stroke-miterlimit:10;" x1="97.667" y1="300.333" x2="117.667" y2="313"/>
			</g>
			
				<path id="XMLID_304_" style="fill:#C6FF00;stroke:#263238;stroke-linecap:round;stroke-linejoin:round;stroke-miterlimit:10;" d="
				M148.174,252.727l7.944-21.807c0,0-4.206-29.572-12.217-41.254c-1.968-0.287-3.48-0.538-4.138-0.802
				c-2.336-0.935-1.558-1.713-1.713-2.181c-0.156-0.467,0.779-10.903,0.779-10.903s-8.723,2.959-12.773,1.713
				c-4.05-1.246-7.944-3.115-7.944-3.115l-0.156,11.215c0,0-2.097-0.461-5.291-1.351c-3.42,4.398-17.246,22.618-22.279,36.086
				c0,0,7.944,23.676,8.1,27.726c0.113,2.933-2.798,8.4-5.536,14.27c5.071,3.404,14.139,7.426,28.901,7.693
				c17.783,0.321,27.314-3.777,31.532-6.369C150.501,257.306,148.174,252.727,148.174,252.727z"/>
			
				<path id="XMLID_305_" style="fill:#B2B2B2;stroke:#263238;stroke-linecap:round;stroke-linejoin:round;stroke-miterlimit:10;" d="
				M137.651,201.369c3.15-3.028,4.054-7.604,4.007-12.056c-0.858-0.151-1.52-0.298-1.895-0.448
				c-2.336-0.935-1.558-1.713-1.713-2.181c-0.156-0.467,0.779-10.903,0.779-10.903s-8.723,2.959-12.773,1.713
				c-4.05-1.246-7.944-3.115-7.944-3.115l-0.156,11.215c0,0-0.65-0.143-1.775-0.423c-0.859,3.311-2.516,12.209,2.866,17.089
				C124.168,206.906,132.829,206.004,137.651,201.369z"/>
			<path id="XMLID_21_" style="fill:#FFFFFF;stroke:#263238;stroke-linecap:round;stroke-linejoin:round;stroke-miterlimit:10;" d="
				M112.192,184.036c0,0-0.467,11.682-3.427,18.069c-2.959,6.386-6.075,7.321-6.075,7.321s1.402,0.935,3.894,2.025
				c2.492,1.09,2.959,0.623,2.959,0.623s4.673-2.96,6.854-10.748c2.181-7.788,1.558-15.732,1.558-15.732L112.192,184.036z"/>
			<g>
				
					<path id="XMLID_289_" style="fill:#263238;stroke:#263238;stroke-linecap:round;stroke-linejoin:round;stroke-miterlimit:10;" d="
					M120.954,124.342c0,0-0.196-5.289,9.403-7.836c9.599-2.547,18.023,5.094,18.807,10.187c0.784,5.094-0.784,7.836-1.959,8.228
					c-1.175,0.392-6.269-4.702-13.909-7.248C125.656,125.126,119.975,126.693,120.954,124.342z"/>
				<g>
					<g>
						
							<path id="XMLID_287_" style="fill:#B2B2B2;stroke:#263238;stroke-linecap:round;stroke-linejoin:round;stroke-miterlimit:10;" d="
							M111.159,150.006c0,0-1.175-3.526-4.114-1.371c-2.939,2.155-1.567,8.816-0.196,10.775c1.371,1.959,4.114,1.959,4.702,0.588
							c0.588-1.371,0.588-9.208,0.588-9.208"/>
						
							<path id="XMLID_288_" style="fill:#B2B2B2;stroke:#263238;stroke-linecap:round;stroke-linejoin:round;stroke-miterlimit:10;" d="
							M110.767,132.962c0,0-3.33,4.898-1.763,9.795c1.567,4.898,0.784,8.424,0.784,14.105c0,5.681,4.114,13.322,6.857,18.023
							c2.743,4.702,8.207,10.29,14.084,8.527c5.877-1.763,14.518-14.012,16.085-19.694c1.567-5.681,0.98-7.053,1.959-9.403
							c0.979-2.351,2.351-6.661,2.351-13.126c0-6.465-7.64-15.085-17.044-17.827C124.676,120.62,114.293,123.363,110.767,132.962z"
							/>
						
							<path id="XMLID_290_" style="fill:#B2B2B2;stroke:#263238;stroke-linecap:round;stroke-linejoin:round;stroke-miterlimit:10;" d="
							M146.422,155.687c0,0,1.567-4.702,4.506-3.33c2.939,1.371,1.763,8.62-0.588,10.775c-2.351,2.155-4.898,1.175-4.898-0.196"/>
						
							<path id="XMLID_292_" style="fill:none;stroke:#263238;stroke-linecap:round;stroke-linejoin:round;stroke-miterlimit:10;" d="
							M124.285,161.956c0,0,3.134,3.33,7.249,0.196"/>
						
							<path id="XMLID_294_" style="fill:none;stroke:#263238;stroke-linecap:round;stroke-linejoin:round;stroke-miterlimit:10;" d="
							M122.564,166.529c0,0,4.745,4.119,11.282-0.09"/>
						<ellipse id="XMLID_291_" style="fill:#263238;" cx="121.131" cy="154.889" rx="1.433" ry="2.328"/>
						<ellipse id="XMLID_296_" style="fill:#263238;" cx="135.099" cy="154.889" rx="1.433" ry="2.328"/>
						
							<path id="XMLID_297_" style="fill:none;stroke:#263238;stroke-linecap:round;stroke-linejoin:round;stroke-miterlimit:10;" d="
							M117.191,149.159c0,0,3.134-2.955,7.074-1.343"/>
						
							<path id="XMLID_298_" style="fill:none;stroke:#263238;stroke-linecap:round;stroke-linejoin:round;stroke-miterlimit:10;" d="
							M131.607,148.353c0,0,5.283-2.328,8.148,2.328"/>
					</g>
					
						<path id="XMLID_293_" style="fill:#263238;stroke:#263238;stroke-linecap:round;stroke-linejoin:round;stroke-miterlimit:10;" d="
						M134.08,123.363c-9.404-2.743-19.786,0-23.313,9.599c0,0-3.33,4.898-1.763,9.795c0.551,1.721,0.808,3.272,0.914,4.807
						l0.262,0.287c0,0,1.763-1.763,2.155-4.702s6.857-10.383,17.435-9.599c10.579,0.784,15.672,8.228,16.652,13.126
						c0.98,4.898-1.567,8.424,2.351,7.64c0.979-2.351,2.351-6.661,2.351-13.126C151.123,134.725,143.483,126.105,134.08,123.363z"/>
				</g>
			</g>
			
				<path id="XMLID_299_" style="fill:#B2B2B2;stroke:#263238;stroke-linecap:round;stroke-linejoin:round;stroke-miterlimit:10;" d="
				M202.068,281.855l10.122,2.08c0.812,0.167,1.54,0.612,2.057,1.261c1.701,2.135,5.528,7.048,5.89,8.498
				c0.467,1.869,0.467,2.336-0.156,2.336c-0.623,0-1.713-0.156-2.492-0.311c-0.779-0.156-3.738-4.361-6.075-4.517
				c-2.336-0.156-6.698-1.713-6.698-1.713s4.984,3.738,6.075,4.673c1.09,0.935,0.935,1.402,0.156,1.713
				c-0.779,0.312-1.869-0.156-2.96-0.623c-1.09-0.467-1.558-0.623-5.296-2.181c-3.738-1.558-6.231-5.607-6.231-5.607
				L202.068,281.855z"/>
			
				<polyline id="XMLID_301_" style="fill:none;stroke:#696969;stroke-linecap:round;stroke-linejoin:round;stroke-miterlimit:10;" points="
				162.348,214.254 156.118,230.92 161.725,220.952 			"/>
			
				<polyline id="XMLID_302_" style="fill:none;stroke:#696969;stroke-linecap:round;stroke-linejoin:round;stroke-miterlimit:10;" points="
				90.385,201.948 90.385,220.329 87.27,206.933 			"/>
			<path id="XMLID_20_" style="fill:#FFFFFF;stroke:#263238;stroke-linecap:round;stroke-linejoin:round;stroke-miterlimit:10;" d="
				M121.227,214.41c0,0,2.492,1.869,5.607,1.09c3.115-0.779,11.527-6.854,16.667-13.707c5.14-6.854,7.477-10.748,7.477-10.748
				l-8.256-2.492c0,0-4.361,11.838-10.125,16.978c-5.763,5.14-14.33,7.633-14.33,7.633L121.227,214.41z"/>
			<path id="XMLID_18_" style="fill:#FFFFFF;stroke:#263238;stroke-linecap:round;stroke-linejoin:round;stroke-miterlimit:10;" d="
				M82.753,158.802c0,0,36.76,54.673,38.474,55.608c1.713,0.935,2.492,1.246,2.492,1.246s-8.723,0-11.215-2.025
				c-2.492-2.025-22.43-39.097-24.143-43.147c-1.714-4.05-4.673-9.034-4.673-9.034l-1.558-2.96L82.753,158.802z"/>
			<path id="XMLID_19_" style="fill:#FFFFFF;stroke:#263238;stroke-linecap:round;stroke-linejoin:round;stroke-miterlimit:10;" d="
				M82.753,158.802c0,0,15.265,43.925,16.511,47.041c1.246,3.115,5.607,5.607,7.944,5.919c2.336,0.311,2.336,0.311,2.336,0.311
				s-11.059-18.069-15.888-28.972C88.828,172.197,82.753,158.802,82.753,158.802z"/>
			
				<circle id="XMLID_16_" style="fill:#FFFFFF;stroke:#263238;stroke-linecap:round;stroke-linejoin:round;stroke-miterlimit:10;" cx="78.625" cy="151.092" r="9.58"/>
			<g id="XMLID_15_">
				
					<path id="XMLID_303_" style="fill:#263238;stroke:#263238;stroke-linecap:round;stroke-linejoin:round;stroke-miterlimit:10;" d="
					M69.669,235.126c-4.984,2.648-14.798,8.878-16.667,6.075c-1.869-2.804-1.558-18.692,2.959-28.193
					c4.517-9.502,12.665-26.492,12.93-29.404c0.265-2.913-0.397-22.243-0.132-23.038c0.265-0.794,8.341-5.163,8.341-5.163
					s1.456-0.397,2.251,0.927c0.794,1.324,4.369,5.163,4.237,6.223c-0.132,1.059-0.265,1.854-0.265,1.854s2.118,1.192,1.589,3.178
					c-0.53,1.986-1.456,8.076-2.648,8.871c-1.192,0.794-3.178,0.397-3.178,0.397s-0.265,2.648-1.192,4.104
					c-0.927,1.456-1.854,2.251-1.986,2.648c-0.132,0.397-2.969,46.227-4.527,47.784"/>
				<g>
					
						<path id="XMLID_309_" style="fill:#B2B2B2;stroke:#263238;stroke-linecap:round;stroke-linejoin:round;stroke-miterlimit:10;" d="
						M83.324,164.405c0,0,0.132-0.794,0.265-1.854c0.132-1.059-3.442-4.899-4.237-6.223c-0.794-1.324-2.251-0.927-2.251-0.927
						s-8.076,4.369-8.341,5.163c-0.239,0.716,0.276,16.494,0.185,21.73c1.476,1.231,3.713,2.174,6.943,1.482
						c0.01-0.099,0.017-0.161,0.022-0.174c0.132-0.397,1.059-1.192,1.986-2.648c0.927-1.456,1.192-4.104,1.192-4.104
						s1.986,0.397,3.178-0.397c1.192-0.794,2.118-6.885,2.648-8.871C85.442,165.597,83.324,164.405,83.324,164.405z"/>
					
						<line id="XMLID_306_" style="fill:none;stroke:#263238;stroke-linecap:round;stroke-linejoin:round;stroke-miterlimit:10;" x1="83.324" y1="164.405" x2="76.571" y2="161.757"/>
					<path id="XMLID_300_" style="fill:none;stroke:#263238;stroke-linecap:round;stroke-linejoin:round;stroke-miterlimit:10;" d="
						M75.777,165.465c0,0,7.017,1.589,7.679,2.648c0.662,1.059,0.662,2.383,0.662,2.383"/>
					<path id="XMLID_307_" style="fill:none;stroke:#263238;stroke-linecap:round;stroke-linejoin:round;stroke-miterlimit:10;" d="
						M76.174,169.304c0,0,5.296,1.192,6.09,1.854c0.794,0.662,0.927,3.442,0.927,3.442"/>
					
						<polyline id="XMLID_14_" style="fill:none;stroke:#263238;stroke-linecap:round;stroke-linejoin:round;stroke-miterlimit:10;" points="
						79.087,176.851 79.087,174.732 80.543,174.6 					"/>
				</g>
			</g>
			<path id="XMLID_22_" style="fill:#FFFFFF;stroke:#263238;stroke-linecap:round;stroke-linejoin:round;stroke-miterlimit:10;" d="
				M121.071,271.108l-1.869,25.545l2.96,0.467C122.161,297.12,122.161,270.173,121.071,271.108z"/>
			<path id="XMLID_17_" style="fill:#FFFFFF;stroke:#263238;stroke-linecap:round;stroke-linejoin:round;stroke-miterlimit:10;" d="
				M122.94,272.042l0.935,28.349l4.673-0.156l-4.517-27.882C124.03,272.354,123.252,269.706,122.94,272.042z"/>
		</g>
	</g>
</g>
<g id="Confetti">
	<g>
		<polygon style="fill:#9C9C9C;" points="202.342,44.947 207.657,50.206 210.593,45.537 		"/>
		<polygon style="fill:#9C9C9C;" points="135.809,53.778 141.123,59.037 144.059,54.369 		"/>
		<polygon style="fill:#9C9C9C;" points="93.979,32.382 99.294,37.641 102.23,32.973 		"/>
		<polygon style="fill:#9C9C9C;" points="262.326,73.255 258.983,79.943 264.332,81.28 		"/>
		<polygon style="fill:#9C9C9C;" points="313.289,25.898 309.946,32.585 315.296,33.923 		"/>
		<polygon style="fill:#C6FF00;" points="202.74,84.31 197.542,78.935 194.504,83.538 		"/>
		<polygon style="fill:#C6FF00;" points="172.262,86.308 167.064,80.934 164.026,85.536 		"/>
		<polygon style="fill:#C6FF00;" points="237.919,62.35 244,58 239.895,54.318 		"/>
		<polygon style="fill:#C6FF00;" points="169.468,40.697 175.549,36.347 171.445,32.665 		"/>
		<polygon style="fill:#C6FF00;" points="285.836,79.447 291.917,75.098 287.812,71.415 		"/>
		<polygon style="fill:#9C9C9C;" points="42.462,83.027 39.119,89.715 44.468,91.052 		"/>
		<polygon style="fill:#9C9C9C;" points="76.438,88.023 73.094,94.711 78.444,96.048 		"/>
		<polygon style="fill:#C6FF00;" points="57.821,65.102 52.624,59.728 49.586,64.33 		"/>
		<polygon style="fill:#C6FF00;" points="200.365,117.846 206.446,113.497 202.341,109.814 		"/>
		<polygon style="fill:#9C9C9C;" points="362.354,65.712 367.669,70.97 370.605,66.302 		"/>
		<polygon style="fill:#9C9C9C;" points="422.338,79.363 418.995,86.05 424.345,87.388 		"/>
		<polygon style="fill:#9C9C9C;" points="341.397,43.996 338.053,50.684 343.403,52.021 		"/>
		<polygon style="fill:#9C9C9C;" points="456.314,84.359 452.97,91.047 458.32,92.384 		"/>
		<polygon style="fill:#9C9C9C;" points="473.302,58.877 469.958,65.565 475.308,66.902 		"/>
		<polygon style="fill:#C6FF00;" points="362.752,90.417 357.554,85.043 354.516,89.645 		"/>
		<polygon style="fill:#C6FF00;" points="332.274,92.415 327.076,87.041 324.038,91.644 		"/>
		<polygon style="fill:#C6FF00;" points="396.929,41.618 403.01,37.268 398.905,33.586 		"/>
		<polygon style="fill:#C6FF00;" points="329.481,34.59 335.562,30.24 331.457,26.558 		"/>
		<polygon style="fill:#C6FF00;" points="429.909,50.168 435.99,45.818 431.885,42.136 		"/>
		<polygon style="fill:#C6FF00;" points="360.377,123.954 366.458,119.604 362.353,115.922 		"/>
		<polygon style="fill:#C6FF00;" points="113.649,79.427 119.73,75.077 115.625,71.395 		"/>
		<polygon style="fill:#9C9C9C;" points="312.084,159.92 306.769,154.661 303.833,159.329 		"/>
		<polygon style="fill:#9C9C9C;" points="363.547,156.423 358.232,151.164 355.296,155.832 		"/>
		<polygon style="fill:#9C9C9C;" points="422.098,163.086 416.783,157.827 413.847,162.495 		"/>
		<polygon style="fill:#9C9C9C;" points="252.1,146.269 255.444,139.582 250.094,138.244 		"/>
		<polygon style="fill:#9C9C9C;" points="218.125,141.273 221.468,134.585 216.118,133.248 		"/>
		<polygon style="fill:#C6FF00;" points="386.133,153.202 391.331,158.576 394.369,153.974 		"/>
		<polygon style="fill:#C6FF00;" points="237.808,143.295 231.727,147.645 235.831,151.327 		"/>
		<polygon style="fill:#C6FF00;" points="240.805,119.312 234.724,123.662 238.829,127.344 		"/>
		<polygon style="fill:#9C9C9C;" points="471.964,136.497 475.308,129.81 469.958,128.473 		"/>
		<polygon style="fill:#9C9C9C;" points="437.989,131.501 441.332,124.814 435.982,123.476 		"/>
		<polygon style="fill:#C6FF00;" points="457.672,133.523 451.591,137.873 455.695,141.555 		"/>
		<polygon style="fill:#9C9C9C;" points="169.251,119.591 163.936,114.332 161,119 		"/>
		<polygon style="fill:#9C9C9C;" points="92.088,140.162 95.432,133.474 90.082,132.137 		"/>
		<polygon style="fill:#9C9C9C;" points="58.113,135.165 61.456,128.478 56.106,127.141 		"/>
		<polygon style="fill:#9C9C9C;" points="41.125,160.647 44.468,153.96 39.119,152.622 		"/>
		<polygon style="fill:#C6FF00;" points="76.729,158.087 81.927,163.461 84.965,158.859 		"/>
		<polygon style="fill:#C6FF00;" points="184.946,158.062 178.865,162.412 182.97,166.094 		"/>
		<line style="fill:#C6FF00;" x1="71.714" y1="141.537" x2="75.819" y2="145.22"/>
		<polygon style="fill:#C6FF00;" points="80.793,113.205 74.712,117.555 78.817,121.237 		"/>
		<polygon style="fill:#C6FF00;" points="391.006,115.668 384.925,120.018 389.03,123.7 		"/>
		<polygon style="fill:#9C9C9C;" points="150.88,185.249 156.194,190.507 159.13,185.839 		"/>
		<polygon style="fill:#9C9C9C;" points="92.329,178.585 97.644,183.844 100.579,179.176 		"/>
		<polygon style="fill:#9C9C9C;" points="262.326,195.402 258.983,202.089 264.332,203.427 		"/>
		<polygon style="fill:#9C9C9C;" points="102.344,230.313 99,237 104.35,238.337 		"/>
		<polygon style="fill:#C6FF00;" points="202.74,206.456 197.542,201.082 194.504,205.684 		"/>
		<polygon style="fill:#C6FF00;" points="172.262,208.455 167.064,203.08 164.026,207.683 		"/>
		<polygon style="fill:#C6FF00;" points="128.294,188.469 123.096,183.095 120.058,187.697 		"/>
		<polygon style="fill:#C6FF00;" points="277.685,177.477 272.487,172.103 269.45,176.705 		"/>
		<polygon style="fill:#C6FF00;" points="237.919,184.497 244,180.147 239.895,176.464 		"/>
		<polygon style="fill:#C6FF00;" points="276.619,198.376 282.7,194.026 278.595,190.344 		"/>
		<polygon style="fill:#C6FF00;" points="273.621,222.359 279.702,218.009 275.597,214.327 		"/>
		<polygon style="fill:#9C9C9C;" points="42.462,205.174 39.119,211.861 44.468,213.199 		"/>
		<polygon style="fill:#9C9C9C;" points="76.438,210.17 73.094,216.858 78.444,218.195 		"/>
		<polygon style="fill:#C6FF00;" points="57.821,187.249 52.624,181.875 49.586,186.477 		"/>
		<polygon style="fill:#C6FF00;" points="56.755,208.148 62.836,203.798 58.731,200.116 		"/>
		<polygon style="fill:#C6FF00;" points="200.365,239.993 206.446,235.643 202.341,231.961 		"/>
		<polygon style="fill:#9C9C9C;" points="310.892,191.356 316.206,196.615 319.142,191.947 		"/>
		<polygon style="fill:#9C9C9C;" points="422.338,201.509 418.995,208.197 424.345,209.534 		"/>
		<polygon style="fill:#9C9C9C;" points="456.314,206.506 452.97,213.193 458.32,214.531 		"/>
		<polygon style="fill:#9C9C9C;" points="473.302,181.024 469.958,187.712 475.308,189.049 		"/>
		<polygon style="fill:#C6FF00;" points="332.274,214.562 327.076,209.188 324.038,213.79 		"/>
		<polygon style="fill:#C6FF00;" points="322.198,330.374 317,325 313.962,329.603 		"/>
		<polygon style="fill:#C6FF00;" points="263.024,29.032 269.105,24.682 265,21 		"/>
		<polygon style="fill:#C6FF00;" points="360.377,246.1 366.458,241.751 362.353,238.068 		"/>
		<polygon style="fill:#C6FF00;" points="123.42,226.003 129.501,221.654 125.397,217.971 		"/>
		<polygon style="fill:#9C9C9C;" points="363.547,278.569 358.232,273.31 355.296,277.979 		"/>
		<polygon style="fill:#9C9C9C;" points="252.1,268.416 255.444,261.728 250.094,260.391 		"/>
		<polygon style="fill:#9C9C9C;" points="218.125,263.419 221.468,256.732 216.118,255.395 		"/>
		<polygon style="fill:#C6FF00;" points="311.687,257.362 316.885,262.736 319.923,258.134 		"/>
		<polygon style="fill:#C6FF00;" points="342.165,255.363 347.363,260.737 350.4,256.135 		"/>
		<polygon style="fill:#C6FF00;" points="386.133,352.247 391.331,357.622 394.369,353.019 		"/>
		<polygon style="fill:#C6FF00;" points="276.508,279.321 270.426,283.671 274.531,287.354 		"/>
		<polygon style="fill:#C6FF00;" points="240.805,241.459 234.724,245.809 238.829,249.491 		"/>
		<polygon style="fill:#9C9C9C;" points="471.964,335.543 475.308,328.855 469.958,327.518 		"/>
		<polygon style="fill:#9C9C9C;" points="437.989,253.648 441.332,246.96 435.982,245.623 		"/>
		<polygon style="fill:#C6FF00;" points="457.672,332.569 451.591,336.918 455.695,340.601 		"/>
		<polygon style="fill:#C6FF00;" points="314.062,223.825 307.98,228.174 312.085,231.857 		"/>
		<polygon style="fill:#9C9C9C;" points="203.535,272.462 198.22,267.203 195.284,271.871 		"/>
		<polygon style="fill:#9C9C9C;" points="92.088,262.309 95.432,255.621 90.082,254.284 		"/>
		<polygon style="fill:#9C9C9C;" points="173.029,270.802 176.373,264.115 171.023,262.777 		"/>
		<polygon style="fill:#9C9C9C;" points="58.113,257.312 61.456,250.625 56.106,249.287 		"/>
		<polygon style="fill:#9C9C9C;" points="41.125,282.794 44.468,276.106 39.119,274.769 		"/>
		<polygon style="fill:#C6FF00;" points="182.153,249.256 187.351,254.63 190.388,250.028 		"/>
		<polygon style="fill:#C6FF00;" points="76.729,280.233 81.927,285.608 84.965,281.005 		"/>
		<polygon style="fill:#C6FF00;" points="116.495,273.214 110.414,277.564 114.519,281.246 		"/>
		<polygon style="fill:#C6FF00;" points="136.793,383.352 130.712,387.701 134.817,391.384 		"/>
		<polygon style="fill:#C6FF00;" points="256.05,333.717 249.968,338.067 254.073,341.75 		"/>
		<polygon style="fill:#C6FF00;" points="391.006,237.815 384.925,242.164 389.03,245.847 		"/>
		<polygon style="fill:#9C9C9C;" points="202.342,391.119 207.657,396.378 210.593,391.71 		"/>
		<polygon style="fill:#9C9C9C;" points="88.685,343.741 94,349 96.936,344.332 		"/>
		<polygon style="fill:#9C9C9C;" points="262.326,404.77 258.983,411.458 264.332,412.795 		"/>
		<polygon style="fill:#9C9C9C;" points="181.385,310.276 178.041,316.964 183.391,318.301 		"/>
		<polygon style="fill:#9C9C9C;" points="296.302,409.767 292.958,416.454 298.308,417.791 		"/>
		<polygon style="fill:#9C9C9C;" points="313.289,384.285 309.946,390.972 315.296,392.31 		"/>
		<polygon style="fill:#C6FF00;" points="202.74,415.824 197.542,410.45 194.504,415.052 		"/>
		<polygon style="fill:#C6FF00;" points="124.65,353.625 119.452,348.251 116.414,352.853 		"/>
		<polygon style="fill:#C6FF00;" points="237.919,393.865 244,389.515 239.895,385.832 		"/>
		<polygon style="fill:#C6FF00;" points="273.621,431.727 279.702,427.377 275.597,423.695 		"/>
		<polygon style="fill:#9C9C9C;" points="38.819,370.33 35.475,377.017 40.825,378.354 		"/>
		<polygon style="fill:#9C9C9C;" points="72.794,375.326 69.451,382.013 74.8,383.351 		"/>
		<polygon style="fill:#C6FF00;" points="54.178,352.405 48.98,347.03 45.942,351.633 		"/>
		<polygon style="fill:#C6FF00;" points="200.365,456.714 206.446,452.364 202.341,448.682 		"/>
		<polygon style="fill:#9C9C9C;" points="362.354,311.227 367.669,316.485 370.605,311.817 		"/>
		<polygon style="fill:#9C9C9C;" points="422.338,401.776 418.995,408.464 424.345,409.801 		"/>
		<polygon style="fill:#9C9C9C;" points="341.397,316.384 338.053,323.071 343.403,324.409 		"/>
		<polygon style="fill:#9C9C9C;" points="456.314,406.773 452.97,413.46 458.32,414.797 		"/>
		<polygon style="fill:#9C9C9C;" points="473.302,381.291 469.958,387.978 475.308,389.316 		"/>
		<polygon style="fill:#C6FF00;" points="332.274,423.93 327.076,418.556 324.038,423.158 		"/>
		<polygon style="fill:#C6FF00;" points="437.698,383.851 432.5,378.477 429.462,383.079 		"/>
		<polygon style="fill:#C6FF00;" points="397.931,390.871 404.012,386.521 399.907,382.839 		"/>
		<polygon style="fill:#C6FF00;" points="433.633,428.733 439.714,424.383 435.609,420.701 		"/>
		<polygon style="fill:#C6FF00;" points="360.377,462.821 366.458,458.471 362.353,454.789 		"/>
		<polygon style="fill:#C6FF00;" points="100,421 106.081,416.65 101.976,412.968 		"/>
		<polygon style="fill:#9C9C9C;" points="202.342,470.871 207.657,472 210.593,470.998 		"/>
		<polygon style="fill:#9C9C9C;" points="150.88,449.757 156.194,450.887 159.13,449.884 		"/>
		<polygon style="fill:#9C9C9C;" points="92.329,448.327 97.644,449.456 100.579,448.454 		"/>
		<polygon style="fill:#9C9C9C;" points="262.326,451.937 258.983,453.373 264.332,453.66 		"/>
		<polygon style="fill:#9C9C9C;" points="181.385,450.114 178.041,451.549 183.391,451.836 		"/>
		<polygon style="fill:#9C9C9C;" points="296.302,453.01 292.958,454.446 298.308,454.733 		"/>
		<polygon style="fill:#9C9C9C;" points="313.289,447.539 309.946,448.975 315.296,449.262 		"/>
		<polygon style="fill:#C6FF00;" points="189,468 183.802,466.846 180.764,467.834 		"/>
		<polygon style="fill:#C6FF00;" points="172.262,454.739 167.064,453.586 164.026,454.574 		"/>
		<polygon style="fill:#C6FF00;" points="128.294,450.449 123.096,449.295 120.058,450.283 		"/>
		<polygon style="fill:#C6FF00;" points="277.685,448.089 272.487,446.935 269.45,447.923 		"/>
		<polygon style="fill:#C6FF00;" points="237.919,449.596 244,448.662 239.895,447.872 		"/>
		<polygon style="fill:#C6FF00;" points="169.468,448.094 175.549,447.16 171.445,446.37 		"/>
		<polygon style="fill:#C6FF00;" points="276.619,452.576 282.7,451.642 278.595,450.851 		"/>
		<polygon style="fill:#C6FF00;" points="273.621,457.724 279.702,456.791 275.597,456 		"/>
		<polygon style="fill:#9C9C9C;" points="42.462,454.035 39.119,455.471 44.468,455.758 		"/>
		<polygon style="fill:#9C9C9C;" points="76.438,455.108 73.094,456.543 78.444,456.831 		"/>
		<polygon style="fill:#C6FF00;" points="45,466 39.802,464.846 36.764,465.834 		"/>
		<polygon style="fill:#C6FF00;" points="68.024,468.724 74.105,467.79 70,467 		"/>
		<polygon style="fill:#C6FF00;" points="53.757,459.822 59.838,458.888 55.733,458.098 		"/>
		<polygon style="fill:#C6FF00;" points="200.365,461.51 206.446,460.576 202.341,459.786 		"/>
		<polygon style="fill:#9C9C9C;" points="362.354,450.318 367.669,451.447 370.605,450.444 		"/>
		<polygon style="fill:#9C9C9C;" points="310.892,451.069 316.206,452.198 319.142,451.195 		"/>
		<polygon style="fill:#9C9C9C;" points="422.338,453.248 418.995,454.684 424.345,454.971 		"/>
		<polygon style="fill:#9C9C9C;" points="341.397,451.425 338.053,452.861 343.403,453.148 		"/>
		<polygon style="fill:#9C9C9C;" points="456.314,454.321 452.97,455.757 458.32,456.044 		"/>
		<polygon style="fill:#9C9C9C;" points="275,467 271.656,468.436 277.006,468.723 		"/>
		<polygon style="fill:#9C9C9C;" points="473.302,448.851 469.958,450.286 475.308,450.573 		"/>
		<polygon style="fill:#C6FF00;" points="362.752,455.621 357.554,454.468 354.516,455.456 		"/>
		<polygon style="fill:#C6FF00;" points="332.274,456.051 327.076,454.897 324.038,455.885 		"/>
		<polygon style="fill:#C6FF00;" points="459.236,468.166 454.038,467.012 451,468 		"/>
		<polygon style="fill:#C6FF00;" points="437.698,449.4 432.5,448.246 429.462,449.234 		"/>
		<polygon style="fill:#C6FF00;" points="397.931,450.907 404.012,449.973 399.907,449.183 		"/>
		<polygon style="fill:#C6FF00;" points="329.481,449.405 335.562,448.472 331.457,447.681 		"/>
		<polygon style="fill:#C6FF00;" points="436.631,453.887 442.712,452.953 438.607,452.163 		"/>
		<polygon style="fill:#C6FF00;" points="433.633,459.036 439.714,458.102 435.609,457.311 		"/>
		<polygon style="fill:#9C9C9C;" points="396.626,476.295 393.283,477.731 398.633,478.018 		"/>
		<polygon style="fill:#9C9C9C;" points="430.602,477.368 427.258,478.804 432.608,479.091 		"/>
		<polygon style="fill:#C6FF00;" points="411.986,472.447 406.788,471.293 403.75,472.281 		"/>
		<polygon style="fill:#C6FF00;" points="410.919,476.934 417,476 412.895,475.21 		"/>
		<polygon style="fill:#C6FF00;" points="407.921,482.082 414.002,481.149 409.897,480.358 		"/>
		<polygon style="fill:#C6FF00;" points="310.024,473.724 316.105,472.79 312,472 		"/>
		<polygon style="fill:#C6FF00;" points="123.42,458.507 129.501,457.573 125.397,456.783 		"/>
		<polygon style="fill:#9C9C9C;" points="105.749,465.873 111.064,467.002 114,466 		"/>
		<polygon style="fill:#C6FF00;" points="127.131,470.855 121.933,469.701 118.896,470.69 		"/>
		<polygon style="fill:#C6FF00;" points="83.163,466.565 77.965,465.411 74.927,466.399 		"/>
		<polygon style="fill:#C6FF00;" points="78.29,474.623 84.371,473.689 80.266,472.898 		"/>
	</g>
</g>
<g id="Emojis">
</g>
</svg>
